<svg width="607" height="432" viewBox="0 0 607 432" fill="none" xmlns="http://www.w3.org/2000/svg">
<g clip-path="url(#clip0_1478_8003)">
<path d="M333.735 308.508L387.941 319.706C386.812 331.246 383.822 342.53 379.084 353.122C371.378 370.139 366.794 379 366.794 379L306.078 367.009C306.078 367.009 314.935 368.927 324.302 341.219C333.668 313.512 333.735 308.508 333.735 308.508Z" fill="white"/>
<path d="M350.785 276.128L358.314 311.903L399.434 303.196L389.646 270L350.785 276.128Z" fill="#77C5EF"/>
<path d="M405.7 340.8C414.2 334.431 421.616 326.742 427.666 318.03C427.666 318.03 441.55 334.033 448.658 337.494C455.766 340.955 458.822 343.424 471 341.329C471 341.329 468.786 350.786 446.134 359.426C423.481 368.067 405.7 340.8 405.7 340.8Z" fill="white"/>
<path d="M342.37 316.796C342.37 316.796 341.551 328.523 335.572 336.304L354.46 339.941C354.46 339.941 360.771 327.2 360.461 320.279L342.37 316.796Z" fill="#FFCD1C"/>
<path d="M426.559 360.396C425.689 360.391 424.821 360.302 423.968 360.132C422.685 359.868 421.431 359.477 420.226 358.963C410.971 355.172 397.441 340.36 396.865 339.72C405.966 334.254 420.492 316.576 420.647 316.399C421.754 316.51 429.504 326.914 440.576 335.863C443.494 338.265 446.885 340.032 450.532 341.049C454.178 342.067 457.997 342.312 461.745 341.77C462.653 341.616 463.184 341.462 463.206 341.462C459.663 349.948 454.504 353.739 448.636 353.739C444.549 353.565 440.644 352.01 437.564 349.331C435.549 356.803 431.918 360.396 426.559 360.396ZM398.415 339.478C401.139 342.365 412.808 354.489 420.713 357.751C421.846 358.232 423.026 358.594 424.234 358.831C430.478 360.065 434.486 356.627 436.612 348.03C437.786 347.766 442.546 352.439 448.591 352.439C453.618 352.439 458.135 349.287 462.01 343.049C458.063 343.637 454.035 343.392 450.19 342.328C446.344 341.265 442.767 339.408 439.69 336.877C432.864 331.188 426.645 324.814 421.134 317.854C418.41 321.05 406.675 334.871 398.482 339.478H398.415Z" fill="#161618"/>
<path d="M429.482 360.793C427.587 360.801 425.698 360.579 423.857 360.132C423.69 360.085 423.548 359.977 423.457 359.83C423.367 359.683 423.336 359.507 423.37 359.338C423.407 359.17 423.509 359.022 423.654 358.928C423.799 358.833 423.975 358.798 424.145 358.831C430.368 360.066 434.397 356.627 436.523 348.03C437.697 347.766 442.458 352.439 448.503 352.439C453.861 352.439 458.644 348.846 462.674 341.77C462.758 341.631 462.889 341.528 463.045 341.479C463.2 341.43 463.367 341.44 463.516 341.506C463.664 341.569 463.783 341.686 463.849 341.834C463.915 341.981 463.922 342.147 463.87 342.299C463.737 342.74 460.15 353.078 440.775 358.809C437.128 360.017 433.323 360.685 429.482 360.793V360.793ZM437.542 349.397C436.058 354.599 433.844 357.927 430.899 359.448C434.166 359.197 437.392 358.561 440.509 357.553C443.892 356.576 447.171 355.27 450.296 353.651C449.736 353.685 449.174 353.685 448.613 353.651C444.576 353.5 440.708 352.001 437.63 349.397H437.542Z" fill="#161618"/>
<path d="M458.689 295.261C458.141 295.261 457.606 295.099 457.151 294.796C456.696 294.494 456.341 294.063 456.131 293.56C455.922 293.056 455.867 292.502 455.974 291.968C456.081 291.433 456.344 290.942 456.732 290.557C457.119 290.172 457.612 289.909 458.148 289.803C458.685 289.697 459.242 289.751 459.748 289.96C460.254 290.168 460.686 290.522 460.99 290.975C461.294 291.428 461.456 291.96 461.456 292.505C461.456 293.236 461.165 293.937 460.646 294.454C460.127 294.97 459.423 295.261 458.689 295.261V295.261ZM458.689 291.073C458.404 291.073 458.126 291.157 457.889 291.314C457.652 291.472 457.468 291.695 457.359 291.957C457.25 292.219 457.221 292.507 457.277 292.785C457.333 293.063 457.47 293.318 457.671 293.518C457.872 293.719 458.129 293.855 458.408 293.911C458.687 293.966 458.976 293.938 459.239 293.829C459.502 293.721 459.727 293.537 459.885 293.301C460.044 293.066 460.128 292.789 460.128 292.505C460.128 292.125 459.976 291.761 459.706 291.492C459.437 291.224 459.07 291.073 458.689 291.073V291.073Z" fill="#161618"/>
<path d="M363.85 374.393L303 362.38C318.832 358.611 329.927 303.637 330.037 303.086C330.834 302.579 385.04 313.776 385.04 313.776C385.466 317.804 385.151 321.875 384.111 325.789C384.093 325.875 384.057 325.955 384.007 326.027C383.956 326.098 383.892 326.158 383.817 326.203C383.742 326.248 383.659 326.278 383.573 326.29C383.486 326.303 383.398 326.297 383.313 326.274C383.228 326.259 383.148 326.227 383.077 326.179C383.006 326.131 382.945 326.068 382.899 325.996C382.853 325.923 382.823 325.842 382.81 325.757C382.798 325.672 382.803 325.586 382.826 325.503C383.649 322.046 384.124 318.517 384.244 314.967L331.1 303.945C329.816 310.183 320.184 354.643 305.658 361.542L363.384 372.938C369.278 362.002 374.391 350.666 378.686 339.015C378.75 338.856 378.872 338.726 379.028 338.653C379.184 338.579 379.362 338.567 379.527 338.618C379.61 338.645 379.686 338.689 379.751 338.746C379.816 338.804 379.87 338.874 379.907 338.952C379.944 339.03 379.965 339.115 379.968 339.202C379.971 339.289 379.957 339.375 379.926 339.456C375.536 351.317 370.32 362.859 364.315 373.996C364.275 374.095 364.212 374.182 364.131 374.251C364.05 374.32 363.954 374.369 363.85 374.393V374.393Z" fill="#161618"/>
<path d="M371.378 312.189C370.648 311.308 370.891 310.955 371.245 310.889L394.872 306.172L385.439 274.21L347.796 280.14L353.708 307.715C353.741 307.884 353.706 308.06 353.611 308.204C353.516 308.348 353.368 308.449 353.199 308.486C353.114 308.506 353.027 308.508 352.942 308.492C352.856 308.477 352.775 308.445 352.703 308.397C352.63 308.35 352.568 308.288 352.52 308.217C352.472 308.145 352.439 308.064 352.424 307.979L346.356 279.743C346.91 278.949 385.771 272.822 385.771 272.822C385.929 272.799 386.089 272.833 386.223 272.918C386.357 273.003 386.456 273.133 386.502 273.284L396.289 306.502C395.78 307.318 371.467 312.167 371.467 312.167L371.378 312.189Z" fill="#161618"/>
<path d="M368.986 347.501L331.099 339.941C331.014 339.924 330.932 339.89 330.859 339.841C330.787 339.792 330.724 339.729 330.676 339.657C330.579 339.51 330.544 339.331 330.579 339.158C330.614 338.986 330.717 338.835 330.864 338.737C331.012 338.64 331.192 338.605 331.365 338.64L369.008 346.201C369.162 346.241 369.296 346.334 369.387 346.463C369.477 346.593 369.518 346.751 369.502 346.908C369.486 347.065 369.415 347.211 369.3 347.32C369.185 347.429 369.034 347.493 368.875 347.501H368.986Z" fill="#161618"/>
<path d="M365.931 355.062L328.044 347.479C327.947 347.475 327.853 347.45 327.768 347.406C327.682 347.362 327.607 347.3 327.548 347.225C327.489 347.149 327.447 347.062 327.426 346.969C327.404 346.875 327.402 346.778 327.422 346.685C327.441 346.591 327.481 346.502 327.539 346.425C327.596 346.348 327.669 346.285 327.753 346.239C327.838 346.193 327.931 346.165 328.027 346.159C328.123 346.152 328.22 346.167 328.31 346.201L366.064 353.761C366.217 353.801 366.351 353.894 366.442 354.024C366.533 354.153 366.574 354.311 366.558 354.468C366.542 354.625 366.47 354.772 366.355 354.88C366.24 354.989 366.089 355.054 365.931 355.062V355.062Z" fill="#161618"/>
<path d="M362.875 362.622L324.989 355.04C324.903 355.024 324.822 354.991 324.75 354.944C324.678 354.896 324.616 354.834 324.569 354.762C324.521 354.69 324.488 354.609 324.473 354.524C324.458 354.439 324.46 354.352 324.479 354.268C324.517 354.1 324.618 353.953 324.763 353.858C324.908 353.763 325.084 353.729 325.254 353.761L363.008 361.322C363.093 361.338 363.174 361.37 363.247 361.418C363.319 361.466 363.381 361.527 363.428 361.6C363.476 361.672 363.508 361.753 363.523 361.837C363.539 361.922 363.537 362.009 363.517 362.093C363.491 362.243 363.412 362.379 363.294 362.476C363.176 362.573 363.028 362.625 362.875 362.622V362.622Z" fill="#161618"/>
<path d="M361.679 302.182C361.125 302.05 360.927 301.675 361.037 301.322L365.311 287.766C366.396 287.502 376.759 297.818 376.759 297.818L383.136 277.627C383.159 277.543 383.198 277.465 383.252 277.397C383.306 277.329 383.374 277.272 383.451 277.231C383.527 277.19 383.612 277.165 383.698 277.157C383.785 277.149 383.872 277.159 383.955 277.186C384.038 277.213 384.115 277.257 384.181 277.314C384.247 277.371 384.301 277.44 384.34 277.518C384.379 277.596 384.403 277.68 384.409 277.767C384.415 277.854 384.403 277.941 384.376 278.023L377.733 299.25C376.648 299.515 366.285 289.199 366.285 289.199L362.343 301.719C362.3 301.858 362.211 301.979 362.09 302.063C361.97 302.147 361.825 302.189 361.679 302.182V302.182Z" fill="#161618"/>
<path d="M351.228 337.869L332.229 334.21C335.717 327.999 337.852 321.127 338.496 314.041C339.271 313.446 357.339 316.906 357.339 316.906C358.203 324.533 352.069 336.965 351.826 337.494C351.766 337.602 351.68 337.693 351.576 337.758C351.471 337.824 351.351 337.862 351.228 337.869V337.869ZM333.513 333.129L350.874 336.458C351.937 334.254 356.587 324.114 356.587 318.097L339.758 314.856C339.127 321.35 336.981 327.607 333.491 333.129H333.513Z" fill="#161618"/>
</g>
<g clip-path="url(#clip1_1478_8003)">
<path d="M46.8105 209.833V298.733C61.9698 288.097 78.7245 279.968 96.4397 274.654C126.106 265.739 138.741 265.18 138.741 265.18V176.584C122.255 178.714 106.03 182.544 90.3247 188.014C74.9686 193.428 60.3496 200.758 46.8105 209.833V209.833Z" fill="white"/>
<path d="M198.832 302.924C198.832 302.924 178.616 300.714 166.992 288.853L153.22 318.774C153.22 318.774 149.076 299.267 148.015 294.517C146.953 289.767 146.802 280.394 121.153 280.547H100.938C100.938 280.547 76.7799 279.632 68.5673 293.247C60.3547 306.861 60.0012 313.795 60.0012 313.795L39.7856 393.882L34.1758 421.339H159.917L158.578 383.239C162.113 383.283 165.604 382.442 168.736 380.792C171.867 379.143 174.542 376.737 176.519 373.791C183.066 364.618 188.179 354.493 191.681 343.768C193.879 336.732 198.68 318.799 198.68 318.799L198.832 302.924Z" fill="#161618"/>
<path d="M101.62 280.521L101.418 263.402C101.418 263.402 96.1617 265.078 93.8369 258.474C91.5121 251.87 102.53 250.676 103.642 251.235C103.642 251.235 110.616 247.959 113.497 246.155C118.854 242.828 122.998 233.455 122.998 233.455L126.258 238.129L129.138 255.223C129.138 255.223 130.124 266.577 127.547 269.295C126.585 270.34 125.409 271.163 124.101 271.707C122.792 272.251 121.381 272.502 119.966 272.444L120.572 280.445C120.572 280.445 122.594 286.999 122.897 288.065C123.2 289.132 124.716 294.542 119.89 295.99C117.801 296.46 115.62 296.292 113.626 295.509C111.632 294.727 109.915 293.364 108.696 291.596C106.129 288.043 103.767 284.345 101.62 280.521V280.521Z" fill="white"/>
<path d="M172.249 292.84L176.318 285.906C176.318 285.906 178.667 273.46 179.653 272.546C180.442 271.331 181.554 270.361 182.862 269.746C184.17 269.132 185.623 268.896 187.057 269.066C187.466 268.836 187.854 268.573 188.22 268.279C188.22 268.075 197.847 257.28 197.847 257.28C198.468 257.048 199.136 256.974 199.793 257.062C200.449 257.151 201.074 257.4 201.613 257.788C202.271 258.532 202.663 259.477 202.727 260.47C202.791 261.464 202.524 262.451 201.966 263.275C201.107 264.773 196.28 271.225 196.28 271.225C196.28 271.225 201.182 271.225 201.688 273.511L199.667 275.645L199.035 295.177C199.035 295.177 194.234 301.019 191.884 301.451C191.985 301.451 176.57 296.981 172.249 292.84Z" fill="white"/>
<path d="M125.879 238.129C126.325 236.007 126.269 233.81 125.716 231.715C125.163 229.619 124.128 227.683 122.695 226.064C117.641 220.196 102.201 225.86 102.201 225.86C103.428 221.777 103.049 217.376 101.14 213.567C99.4089 210.843 96.709 208.885 93.5914 208.092C90.4738 207.299 87.1727 207.731 84.3608 209.3C77.9424 212.525 75.567 220.857 76.78 226.546C77.9929 232.236 81.8338 235.716 85.5737 235.868C84.5121 240.904 84.6161 246.118 85.8773 251.108C87.9746 259.261 93.0788 265.688 101.418 266.348V263.529C101.418 263.529 95.1513 264.494 94.1658 259.109C93.775 257.464 94.0192 255.732 94.8493 254.261C95.6794 252.791 97.0336 251.691 98.6385 251.184C100.015 251.114 101.394 251.182 102.757 251.388C108.997 249.855 114.553 246.281 118.551 241.227C119.561 239.856 123.074 233.938 123.074 233.938C124.269 235.139 125.222 236.563 125.879 238.129V238.129Z" fill="#FEF8F0"/>
<path d="M199.767 275.645L197.24 366.069C197.24 366.069 231.935 344.809 237.014 314.177V226.648C238.316 218.165 236.521 209.495 231.961 202.238C224.38 189.945 206.691 183.01 206.691 183.01L206.312 270.361L199.767 275.645Z" fill="white"/>
<path d="M139.98 303.585L138.843 392.663C138.843 392.663 104.779 402.518 76.4017 400.588C48.024 398.657 28.6421 391.52 18.1552 381.182C11.9981 375.295 7.99993 367.49 6.8092 359.033L6.60685 266.729C6.60685 266.729 4.28214 291.494 35.768 303.61C67.2539 315.726 102.53 311.052 105.765 310.722C111.93 310.214 139.98 303.585 139.98 303.585Z" fill="white"/>
<path d="M109.428 350.854C109.428 350.854 150.971 347.146 163.505 338.688V369.523C146.351 376.794 128.031 380.89 109.428 381.614V350.854Z" fill="#FFCE26"/>
<path d="M172.248 292.84L174.775 288.7C174.775 288.7 167.902 286.973 167.194 288.319C166.486 289.666 172.248 292.84 172.248 292.84Z" fill="#161618"/>
<path d="M198.832 295.533C198.832 295.533 194.359 301.07 192.515 301.451C194.574 302.07 196.691 302.478 198.832 302.67V295.533Z" fill="#161618"/>
<path d="M47.1639 249.355V275.949L32.457 283.138V256.544L47.1639 249.355Z" fill="#FFCE26"/>
<path d="M206.413 191.621V214.151C201.225 211.62 195.715 209.817 190.039 208.792C182.104 207.674 176.317 207.242 176.317 207.242V184.712C182.296 184.672 188.25 185.476 194.006 187.1C198.235 188.336 202.379 189.846 206.413 191.621V191.621Z" fill="#77C5EF"/>
<path d="M206.741 183.01L206.362 270.361C206.362 270.361 219.856 260.913 226.578 250.041C233.3 239.17 236.686 229.721 237.09 226.546C237.494 223.371 238.379 211.128 233.148 203.965C227.918 196.803 225.719 192.358 206.741 183.01Z" fill="#EEF5F7"/>
<path d="M96.7434 217.555C98.4617 226.191 97.1981 226.546 97.1981 226.546H100.761L102.227 225.784C103.436 221.722 103.047 217.349 101.14 213.567C99.409 210.843 96.7091 208.885 93.5915 208.092C90.4738 207.299 87.1728 207.731 84.3609 209.3C83.7737 209.583 83.2154 209.924 82.6934 210.315C84.9929 210.163 95.2272 210.011 96.7434 217.555Z" fill="white"/>
<path d="M107.332 224.387C109.985 224.59 120.168 225.784 119.966 231.829C119.562 238.789 107.331 249.762 107.205 249.812C108.251 249.379 109.272 248.887 110.263 248.339C113.434 246.413 116.275 243.986 118.678 241.151C119.688 239.779 123.201 233.861 123.201 233.861C124.405 235.086 125.357 236.535 126.005 238.128C126.452 236.007 126.396 233.81 125.843 231.715C125.29 229.619 124.255 227.683 122.822 226.063C119.587 222.406 112.335 223.244 107.332 224.387Z" fill="white"/>
<path d="M172.249 293.983C173.21 291.016 174.436 288.143 175.913 285.398L177.935 277.524C177.935 277.143 178.112 276.737 178.213 276.356C178.575 273.605 179.955 271.093 182.079 269.32C183.35 268.643 184.788 268.343 186.223 268.456C188.051 268.457 189.873 268.661 191.656 269.066C192.533 269.226 193.384 269.508 194.183 269.904C195.165 270.356 195.94 271.167 196.348 272.172C196.757 273.177 196.769 274.301 196.382 275.314C196.085 275.952 195.66 276.52 195.134 276.983C194.607 277.447 193.991 277.795 193.324 278.007C191.766 278.518 190.136 278.776 188.497 278.769C186.045 278.842 183.614 278.301 181.422 277.194C183.797 277.194 185.92 277.55 188.118 277.55C189.737 277.589 191.351 277.357 192.894 276.864C193.407 276.705 193.882 276.444 194.29 276.094C194.699 275.745 195.032 275.315 195.27 274.832C195.528 274.099 195.503 273.294 195.198 272.579C194.894 271.864 194.333 271.29 193.627 270.971C192.916 270.642 192.17 270.395 191.404 270.234C189.692 269.872 187.947 269.684 186.198 269.676C185.004 269.525 183.792 269.756 182.736 270.336C180.893 271.957 179.699 274.196 179.375 276.635C179.375 277.016 179.198 277.423 179.097 277.804L177.025 285.83C176.848 286.211 173.866 291.875 172.78 293.704C172.719 293.79 172.64 293.86 172.548 293.908C172.455 293.957 172.353 293.983 172.249 293.983V293.983Z" fill="#161618"/>
<path d="M199.338 292.053C198.522 291.975 197.754 291.633 197.148 291.079C196.542 290.525 196.131 289.788 195.976 288.98C195.605 287.607 195.74 286.146 196.356 284.865C197.019 283.336 197.943 281.935 199.085 280.725C198.849 282.36 198.29 283.932 197.442 285.348C196.965 286.371 196.858 287.53 197.139 288.624C197.594 290.047 198.276 290.732 199.388 290.859C199.893 291.825 199.641 292.053 199.338 292.053Z" fill="#161618"/>
<path d="M195.951 272.114C196.512 270.12 197.514 268.279 198.883 266.729C200.955 264.189 202.572 262.106 201.89 259.389C201.586 258.271 200.752 257.077 199.363 257.382C198.589 257.637 197.88 258.062 197.29 258.627C193.871 261.771 190.842 265.318 188.27 269.193C189.99 264.719 192.827 260.765 196.507 257.712C197.217 257.015 198.084 256.501 199.034 256.214C199.481 256.13 199.939 256.14 200.381 256.241C200.824 256.342 201.241 256.532 201.608 256.801C201.974 257.07 202.282 257.411 202.513 257.803C202.744 258.196 202.893 258.631 202.951 259.084C203.81 262.386 201.839 264.85 200.096 267.034C198.352 269.218 197.569 270.387 196.33 271.86C196.287 271.926 196.231 271.982 196.166 272.026C196.101 272.07 196.028 272.1 195.951 272.114V272.114Z" fill="#161618"/>
<path d="M201.89 274.4C200.955 272.876 200.298 272.241 199.161 271.86C198.675 271.679 198.145 271.652 197.643 271.784C197.141 271.916 196.692 272.199 196.356 272.597C196.205 270.692 197.696 270.234 199.439 270.692C200.156 270.831 200.82 271.169 201.355 271.667C201.891 272.165 202.277 272.804 202.471 273.511C202.017 274.4 201.966 274.4 201.89 274.4Z" fill="#161618"/>
<path d="M193.551 285.957C192.624 285.97 191.711 285.743 190.896 285.298C190.082 284.853 189.395 284.205 188.902 283.417C188.465 282.5 188.3 281.477 188.426 280.468C188.551 279.459 188.962 278.508 189.609 277.727C189.308 279.424 189.43 281.169 189.963 282.808C190.345 283.411 190.877 283.904 191.506 284.238C192.135 284.572 192.84 284.736 193.551 284.713C194.733 284.595 195.831 284.043 196.634 283.163C197.24 282.528 197.695 281.969 198.201 281.385L199.161 280.217C199.717 281.436 199.413 281.791 199.161 282.147C198.908 282.503 198.176 283.341 197.493 284.027C196.493 285.134 195.11 285.815 193.627 285.932L193.551 285.957Z" fill="#161618"/>
<path d="M188.547 292.434C189.766 290.021 190.374 287.342 190.316 284.636C191.529 284.636 191.857 288.624 189.027 292.256C188.964 292.318 188.889 292.366 188.806 292.396C188.723 292.427 188.635 292.44 188.547 292.434V292.434Z" fill="#161618"/>
<path d="M198.832 303.534C193.276 302.959 187.848 301.484 182.76 299.165C176.67 296.625 165.451 291.19 166.689 288.091C167.22 286.745 168.812 286.795 169.747 286.846C171.482 286.87 173.197 287.223 174.801 287.888C173.139 288.239 171.429 288.299 169.747 288.065C168.787 288.065 167.978 288.065 167.776 288.548C167.397 289.488 172.501 293.628 183.19 298.022C188.135 300.28 193.407 301.729 198.807 302.315C199.439 303.255 199.161 303.534 198.832 303.534Z" fill="#161618"/>
<path d="M116.377 273.155C115.24 273.155 114.002 273.155 112.764 273.155C114.514 272.325 116.441 271.941 118.373 272.038C121.734 272.038 124.312 272.038 126.283 270.057C126.918 269.448 127.432 268.724 127.799 267.923C128.251 266.777 128.533 265.57 128.633 264.342C128.841 262.844 128.918 261.331 128.861 259.82C128.728 257.004 128.441 254.197 128.001 251.413C127.395 247.374 125.601 239.602 125.474 239.526C126.738 239.526 128.506 247.146 128.987 250.549C129.495 253.601 129.825 256.679 129.972 259.77C130.029 261.356 129.953 262.945 129.745 264.519C129.611 265.86 129.297 267.176 128.81 268.431C128.374 269.382 127.765 270.243 127.016 270.971C124.71 272.763 121.801 273.583 118.904 273.257L116.377 273.155Z" fill="#161618"/>
<path d="M112.157 247.781C112.612 247.628 112.966 247.781 113.32 249.508C113.673 251.235 113.32 251.845 112.84 251.87C112.36 251.896 111.905 251.387 111.753 249.99C111.602 248.593 111.601 247.958 112.157 247.781Z" fill="#161618"/>
<path d="M124.438 245.165C124.918 245.012 125.272 245.164 125.676 246.866C126.081 248.568 125.676 249.178 125.272 249.228C124.867 249.279 124.312 248.771 124.109 247.374C123.907 245.977 123.832 245.368 124.438 245.165Z" fill="#161618"/>
<path d="M126.763 242.066C126.216 241.695 125.577 241.483 124.918 241.452C124.259 241.42 123.604 241.571 123.023 241.888C124.893 239.83 126.131 240.288 127.091 240.948C127.066 241.964 126.763 242.066 126.763 242.066Z" fill="#161618"/>
<path d="M100.13 264.164C99.1107 264.165 98.1047 263.94 97.1824 263.505C96.2601 263.07 95.4447 262.435 94.7943 261.647C94.1439 260.859 93.674 259.936 93.4191 258.945C93.1643 257.953 93.1306 256.918 93.3198 255.911C93.509 254.905 93.9169 253.953 94.5142 253.124C95.1115 252.294 95.8835 251.607 96.7752 251.112C97.667 250.617 98.6564 250.326 99.673 250.259C100.69 250.193 101.708 250.352 102.656 250.727C103.602 250.937 104.433 251.5 104.981 252.302C103.136 251.997 102.454 251.946 102.454 251.946C101.335 251.481 100.102 251.366 98.9166 251.616C97.4389 251.953 96.155 252.866 95.3471 254.155C94.5391 255.443 94.2729 257.001 94.608 258.487C94.9431 259.972 95.8518 261.263 97.1337 262.075C98.4156 262.887 99.9658 263.154 101.444 262.818C102.455 262.594 103.388 262.103 104.148 261.395C104.111 262.057 103.833 262.682 103.367 263.151C102.901 263.619 102.279 263.899 101.621 263.935C101.133 264.063 100.633 264.14 100.13 264.164V264.164Z" fill="#161618"/>
<path d="M98.967 261.09C98.5627 260.023 101.873 256.874 101.873 256.874L97.5518 254.334C98.1582 253.292 103.187 256.29 103.187 256.29C103.187 257.255 99.3964 260.963 99.3964 260.963C99.2706 261.051 99.1201 261.096 98.967 261.09Z" fill="#161618"/>
<path d="M117.995 297.514C117.136 297.519 116.282 297.382 115.468 297.108C112.528 295.975 109.92 294.114 107.887 291.698C105.191 288.609 102.983 285.123 101.342 281.36C104.197 284.789 106.396 288.142 108.796 290.885C110.696 293.156 113.14 294.904 115.897 295.965C116.616 296.248 117.387 296.375 118.158 296.335C118.929 296.296 119.683 296.092 120.37 295.736C124.287 293.425 122.897 289.615 121.406 285.576C120.727 283.95 120.261 282.242 120.016 280.496L119.41 272.47C120.623 272.47 121.204 280.09 121.229 280.394C121.462 282.003 121.903 283.575 122.543 285.068C123.984 288.98 125.752 293.856 120.976 296.676C120.076 297.221 119.046 297.511 117.995 297.514V297.514Z" fill="#161618"/>
<path d="M101.621 281.131C101.014 280.521 100.862 263.351 100.862 263.351C102.075 263.351 102.227 280.445 102.227 280.445L101.621 281.131Z" fill="#161618"/>
<path d="M159.917 421.975C158.982 413.974 158.754 406.735 158.527 399.496C158.198 389.183 157.845 378.49 157.188 367.695C158.778 378.213 159.623 388.831 159.714 399.47C159.942 406.582 160.169 413.923 160.498 421.34C159.942 421.975 159.942 421.975 159.917 421.975Z" fill="#161618"/>
<path d="M155.596 338.332C153.932 324.547 151.452 310.874 148.167 297.387C147.525 294.416 146.488 291.545 145.084 288.853C140.662 281.233 131.489 281.233 123.377 281.233H120.623C120.931 280.801 121.349 280.461 121.835 280.251C122.32 280.04 122.853 279.967 123.377 280.039C131.817 280.039 141.369 280.039 146.12 288.319C147.591 291.102 148.671 294.077 149.329 297.158C152.664 310.506 154.962 324.093 156.202 337.798C155.621 338.332 155.621 338.332 155.596 338.332Z" fill="#161618"/>
<path d="M124.237 257.966C124.34 256.196 124.213 254.42 123.858 252.683C122.838 252.801 121.855 253.139 120.977 253.673C120.118 253.242 118.602 244.885 118.602 244.885C119.789 244.657 121.129 252.226 121.129 252.226C122.316 251.692 123.832 251.159 124.565 251.743C125.778 252.657 125.121 256.061 124.792 257.509C124.764 257.637 124.694 257.751 124.593 257.834C124.492 257.917 124.367 257.964 124.237 257.966Z" fill="#161618"/>
<path d="M60.7842 310.621C60.2788 310.621 60.102 310.138 60.2031 309.833C64.2209 297.667 69.0479 289.793 74.5819 286.389C81.0762 282.401 87.7724 279.937 100.913 279.937C88.0504 281.157 81.5311 283.57 75.2137 287.43C69.9323 290.682 65.2575 298.327 61.366 310.291C61.3094 310.395 61.225 310.481 61.1223 310.539C61.0196 310.597 60.9021 310.626 60.7842 310.621Z" fill="#161618"/>
<path d="M34.1758 421.975C35.4898 411.814 37.385 402.747 39.2297 394.288C38.3199 403.441 36.8344 412.527 34.7822 421.492C34.7528 421.631 34.6758 421.755 34.5651 421.843C34.4544 421.931 34.317 421.978 34.1758 421.975V421.975Z" fill="#161618"/>
<path d="M83.1982 421.975C83.9816 414.583 85.1692 408.03 86.3316 400.613C86.2459 407.644 85.3986 414.645 83.8047 421.492C83.7753 421.631 83.6989 421.755 83.5881 421.843C83.4774 421.931 83.3394 421.978 83.1982 421.975V421.975Z" fill="#161618"/>
<path d="M100.913 266.831C90.8048 265.866 83.729 254.918 84.2344 240.821C84.1737 238.651 84.5754 236.492 85.4121 234.49C86.2489 232.488 87.5019 230.689 89.0866 229.213C92.4207 226.615 96.6093 225.381 100.811 225.759C102.631 224.972 118.652 218.495 124.11 226.877C125.369 228.681 126.253 230.723 126.709 232.879C127.165 235.035 127.184 237.261 126.763 239.424C125.675 237.758 124.494 236.156 123.226 234.624C121.374 238.774 118.644 242.469 115.227 245.452C111.81 248.435 107.788 250.634 103.44 251.896C107.697 250.282 111.578 247.806 114.843 244.62C118.108 241.435 120.686 237.608 122.417 233.379C123.453 233.15 124.817 234.243 125.853 236.376C125.793 233.226 124.838 230.159 123.099 227.537C118.045 219.688 101.317 226.877 101.14 226.927C97.1232 226.601 93.1229 227.737 89.8695 230.128C88.4211 231.504 87.2785 233.173 86.5165 235.025C85.7544 236.877 85.3899 238.869 85.4473 240.872C84.9419 254.309 91.4618 264.723 100.963 265.637C101.494 266.602 101.216 266.831 100.913 266.831Z" fill="#161618"/>
<path d="M120.396 264.011C119.736 264.017 119.086 263.86 118.501 263.554C117.862 263.164 117.309 262.647 116.875 262.036C116.441 261.425 116.134 260.732 115.974 259.998C117.136 259.769 117.616 261.725 119.107 262.538C119.635 262.761 120.205 262.866 120.776 262.844C121.348 262.822 121.908 262.674 122.417 262.411C121.963 263.834 121.154 264.011 120.396 264.011Z" fill="#161618"/>
<path d="M84.8157 236.554C77.7149 234.751 75.2891 227.283 75.9966 221.136C76.7042 214.989 80.7473 207.725 89.9455 207.471C91.8719 207.268 93.8186 207.521 95.6305 208.209C97.4424 208.897 99.0698 210.001 100.382 211.433C104.88 216.818 103.137 225.632 103.061 226.013C101.898 225.683 103.566 217.148 99.4468 212.221C98.2584 210.92 96.7795 209.922 95.132 209.308C93.4845 208.694 91.7156 208.482 89.9708 208.69C86.635 208.784 83.4593 210.148 81.0857 212.505C78.712 214.863 77.3174 218.039 77.1842 221.39C76.5525 227.054 78.7258 233.862 84.9674 235.487C85.3465 236.3 85.0936 236.554 84.8157 236.554Z" fill="#161618"/>
<path d="M46.5068 299.394C62.962 287.205 81.4937 278.141 101.19 272.647C82.0457 279.217 63.7941 288.168 46.8603 299.292C46.7503 299.349 46.6303 299.384 46.5068 299.394V299.394Z" fill="#161618"/>
<path d="M129.139 267.263C132.149 265.783 135.421 264.919 138.767 264.723C135.744 266.07 132.529 266.927 129.24 267.263H129.139Z" fill="#161618"/>
<path d="M46.8105 210.442C63.0083 197.971 82.7186 189.03 104.931 182.731L107.23 182.096C107.105 182.556 106.854 182.972 106.506 183.295C106.157 183.618 105.725 183.837 105.259 183.925C84.5871 189.5 64.9567 198.422 47.1388 210.341C47.0419 210.407 46.9277 210.443 46.8105 210.442Z" fill="#161618"/>
<path d="M125.854 179.124C129.956 177.37 134.32 176.314 138.767 176C134.624 177.485 130.338 178.532 125.98 179.124H125.854Z" fill="#161618"/>
<path d="M199.135 299.445C198.528 298.81 199.135 275.619 199.135 275.619C201.662 273.587 203.709 271.987 205.73 270.387L206.109 183.01C206.968 182.452 211.012 184.23 212.351 184.865C225.163 190.885 233.577 200.105 236.711 211.255C241.916 229.924 230.823 251.896 206.817 271.073C204.593 272.851 202.496 274.425 200.323 275.949L199.717 298.81C199.72 298.89 199.708 298.97 199.68 299.045C199.653 299.12 199.611 299.189 199.557 299.248C199.503 299.307 199.438 299.355 199.366 299.389C199.293 299.422 199.214 299.441 199.135 299.445ZM207.347 183.95L206.969 269.396C229.964 250.727 240.577 229.543 235.574 211.586C232.542 200.689 224.329 191.824 211.871 185.957C210.91 185.525 208.611 184.484 207.347 183.95Z" fill="#161618"/>
<path d="M197.315 366.679C196.709 366.069 198.528 298.81 198.528 298.81C199.741 298.81 197.922 366.094 197.922 366.094C197.922 366.173 197.906 366.251 197.875 366.324C197.845 366.397 197.799 366.462 197.743 366.517C197.686 366.571 197.619 366.614 197.545 366.642C197.472 366.669 197.394 366.682 197.315 366.679V366.679Z" fill="#161618"/>
<path d="M197.315 366.679C221.145 349.102 235.65 329.417 236.736 311.586C236.736 310.798 236.736 286.618 236.736 286.618C237.949 286.618 237.949 310.824 237.949 310.824C236.812 329.874 222.13 349.889 197.518 366.704C197.449 366.707 197.381 366.698 197.315 366.679Z" fill="#161618"/>
<path d="M138.843 393.272C138.236 392.637 138.489 373.308 138.489 373.308C139.702 373.308 139.449 392.663 139.449 392.663C139.449 392.825 139.385 392.98 139.271 393.094C139.158 393.208 139.004 393.272 138.843 393.272V393.272Z" fill="#161618"/>
<path d="M139.399 342.295C138.792 341.66 139.272 303.585 139.272 303.585C140.485 303.585 139.98 341.685 139.98 341.685C139.983 341.764 139.97 341.842 139.943 341.916C139.915 341.99 139.873 342.058 139.819 342.115C139.764 342.172 139.699 342.217 139.627 342.248C139.555 342.279 139.477 342.295 139.399 342.295V342.295Z" fill="#161618"/>
<path d="M83.1736 312.525C63.5139 312.525 45.7496 309.224 32.2051 302.645C58.1822 313.897 98.7901 314.583 138.666 303.331L139.803 303C139.853 303.15 139.873 303.309 139.861 303.467C139.848 303.625 139.804 303.779 139.731 303.919C139.658 304.059 139.557 304.182 139.434 304.282C139.312 304.382 139.171 304.456 139.02 304.499C120.85 309.694 102.064 312.394 83.1736 312.525V312.525Z" fill="#161618"/>
<path d="M15.577 290.478C11.6329 286.418 8.75804 281.433 7.2126 275.975C6.37804 272.964 5.94465 269.855 5.92383 266.729C6.94915 269.645 7.79309 272.623 8.45079 275.645C9.88587 280.776 12.4802 285.504 16.0317 289.462C15.9559 290.428 15.8044 290.478 15.577 290.478Z" fill="#161618"/>
<path d="M83.1729 338.154C76.2261 338.17 69.2863 337.712 62.4014 336.783C76.7291 337.571 91.0971 337.172 105.36 335.589C98.1177 337.471 90.6509 338.335 83.1729 338.154Z" fill="#161618"/>
<path d="M83.1733 348.568C75.8519 348.588 68.5388 348.078 61.29 347.044C75.958 347.962 90.6772 347.605 105.284 345.978C98.0699 347.872 90.6276 348.744 83.1733 348.568Z" fill="#161618"/>
<path d="M83.2241 401.35C73.0986 401.414 62.9945 400.409 53.0776 398.353C28.1113 392.993 11.8374 381.055 7.28887 364.723C6.52646 362 6.10207 359.193 6.02539 356.366V295.533C7.23833 295.533 7.26358 356.341 7.26358 356.341C7.33581 359.065 7.74318 361.769 8.47647 364.393C12.8986 380.268 28.8438 391.901 53.3553 397.159C77.8667 402.416 108.317 400.638 138.691 392.079C120.844 398.251 102.097 401.384 83.2241 401.35V401.35Z" fill="#161618"/>
<path d="M6.60645 296.143C5.99998 295.533 6 267.821 6 267.821C7.21294 267.821 7.21289 295.533 7.21289 295.533C7.21289 295.613 7.1971 295.692 7.16662 295.766C7.13614 295.84 7.09153 295.907 7.03521 295.964C6.9789 296.021 6.91199 296.065 6.83841 296.096C6.76483 296.127 6.68609 296.143 6.60645 296.143Z" fill="#161618"/>
<path d="M46.8105 299.394C46.2041 298.784 46.2041 209.833 46.2041 209.833C47.417 209.833 47.417 298.733 47.417 298.733C47.424 298.817 47.4135 298.902 47.3861 298.982C47.3588 299.062 47.3148 299.135 47.2578 299.198C47.2008 299.26 47.1319 299.309 47.0548 299.343C46.9778 299.377 46.8946 299.394 46.8105 299.394V299.394Z" fill="#161618"/>
<path d="M138.842 265.866C138.235 265.256 138.235 176.584 138.235 176.584C139.448 176.584 139.448 265.256 139.448 265.256C139.448 265.418 139.384 265.573 139.271 265.687C139.157 265.801 139.003 265.866 138.842 265.866V265.866Z" fill="#161618"/>
<path d="M208.409 310.976C213.034 305.896 220.362 299.775 226.78 292.434C221.753 299.46 215.685 305.67 208.788 310.849C208.677 310.929 208.545 310.973 208.409 310.976V310.976Z" fill="#161618"/>
<path d="M159.613 383.874C181.143 382.655 192.994 341.812 198.175 317.326C193.98 342.371 181.876 383.874 159.613 383.874Z" fill="#161618"/>
<path d="M153.22 319.384C152.664 318.52 166.639 288.167 166.639 288.167C167.75 288.675 153.751 319.028 153.751 319.028C153.706 319.133 153.633 319.222 153.539 319.285C153.444 319.349 153.334 319.383 153.22 319.384V319.384Z" fill="#161618"/>
<path d="M192.464 302.061C194.809 299.695 196.87 297.061 198.604 294.212C198.288 295.87 197.598 297.434 196.586 298.781C195.574 300.129 194.268 301.225 192.767 301.985L192.464 302.061Z" fill="#161618"/>
<path d="M109.428 347.044C109.756 345.8 147.332 342.599 163.227 333.735C147.61 343.895 109.857 347.019 109.478 347.044H109.428Z" fill="#161618"/>
<path d="M109.428 377.804C109.756 376.559 147.332 373.359 163.227 364.494C147.61 374.654 109.857 377.778 109.478 377.804H109.428Z" fill="#161618"/>
<path d="M109.428 377.905C108.821 377.296 108.821 346.435 108.821 346.435C110.034 346.435 110.034 377.296 110.034 377.296C110.034 377.457 109.971 377.613 109.857 377.727C109.743 377.841 109.589 377.905 109.428 377.905Z" fill="#161618"/>
<path d="M163.505 365.688C162.924 365.104 162.924 334.217 162.924 334.217C164.112 334.217 164.111 365.104 164.111 365.104C164.112 365.183 164.095 365.261 164.065 365.333C164.034 365.406 163.989 365.472 163.933 365.526C163.876 365.581 163.809 365.623 163.735 365.651C163.662 365.679 163.583 365.692 163.505 365.688V365.688Z" fill="#161618"/>
<path d="M31.7998 278.083C31.1933 277.473 31.1934 250.88 31.1934 250.88C36.0267 247.918 41.0984 245.37 46.3551 243.26C46.7089 244.428 37.0812 248.34 32.4821 251.337V276.508C36.9905 274.053 41.6208 271.832 46.3551 269.853C46.7089 271.022 36.6772 275.213 32.2045 278.108C32.0714 278.151 31.9266 278.142 31.7998 278.083Z" fill="#161618"/>
<path d="M176.317 213.846C175.711 213.237 175.711 190.732 175.711 190.732C197.266 191.189 206.362 196.879 206.741 197.133C206.009 198.098 197.038 192.51 176.924 191.367V213.237C176.924 213.398 176.86 213.553 176.746 213.668C176.632 213.782 176.478 213.846 176.317 213.846Z" fill="#161618"/>
<path d="M206.413 220.755C206.009 220.603 196.836 214.888 176.292 213.846C197.266 213.694 206.362 219.384 206.741 219.638C206.817 220.654 206.615 220.755 206.413 220.755Z" fill="#161618"/>
<path d="M53.6333 329.975V350.092C53.6333 350.092 40.9981 350.245 32.457 343.183V322.33C32.457 322.33 38.5221 328.274 53.6333 329.975Z" fill="#77C5EF"/>
<path d="M208.839 323.244C212.359 319.595 216.062 316.127 219.933 312.856C216.982 316.848 213.354 320.287 209.218 323.016C209.117 323.128 208.985 323.208 208.839 323.244V323.244Z" fill="#161618"/>
</g>
<path d="M534.562 44.4022H326.666C321.927 44.4022 318.085 48.2316 318.085 52.9555V191.312C318.085 196.036 321.927 199.865 326.666 199.865H534.562C539.301 199.865 543.142 196.036 543.142 191.312V52.9555C543.142 48.2316 539.301 44.4022 534.562 44.4022Z" fill="white"/>
<path d="M376.875 1H288.581C283.842 1 280 4.82946 280 9.55334V76.3841C280 81.108 283.842 84.9374 288.581 84.9374H376.875C381.614 84.9374 385.456 81.108 385.456 76.3841V9.55334C385.456 4.82946 381.614 1 376.875 1Z" fill="#FEF8F0"/>
<path d="M508.866 202.902C508.632 201.043 508.011 199.803 507.109 199.71C506.207 199.617 482.237 199.71 482.237 199.71C483.034 198.755 483.558 197.603 483.755 196.377C483.952 195.15 483.814 193.893 483.356 192.737L470.579 159.547C469.741 157.752 468.385 156.246 466.686 155.222C464.986 154.198 463.018 153.703 461.034 153.798H412.488C405.726 153.798 400.907 159.221 402.959 164.536L406.721 174.329L412.161 188.43L415.737 197.727C416.223 198.872 416.943 199.904 417.85 200.757C418.757 201.611 419.832 202.267 421.006 202.685C421.006 202.685 421.706 205.707 423.276 205.505H507.622C508.069 205.248 508.428 204.862 508.65 204.397C508.872 203.932 508.947 203.411 508.866 202.902V202.902Z" fill="#161618"/>
<path d="M513.529 120.111C513.529 120.111 504.824 121.367 499.306 126.511C493.734 131.364 489.582 137.628 487.29 144.64C484.103 153.364 485.844 153.829 482.424 160.988C479.004 168.147 478.103 169.851 478.103 169.851L486.295 191.978C486.295 191.978 487.134 198.176 484.274 199.633L486.481 199.865C486.481 199.865 492.544 194.628 494.642 190.382C496.741 186.136 498.466 181.457 498.466 181.457C498.493 184.639 498.353 187.819 498.046 190.986C497.565 195.186 496.492 198.393 494.269 199.71L506.161 199.865C506.758 199.775 507.367 199.911 507.867 200.247C508.368 200.582 508.725 201.093 508.866 201.678C508.973 202.324 508.916 202.986 508.698 203.604C508.481 204.221 508.111 204.774 507.622 205.211L513.591 205.459C519.47 207.326 525.538 208.532 531.685 209.054C540.81 209.643 544.23 206.606 544.23 206.606L546.717 221.187C552.129 221.812 557.602 221.682 562.977 220.799C567.206 219.876 571.362 218.648 575.413 217.127C575.413 217.127 567.501 179.334 566.739 176.003C565.977 172.671 561.951 155.859 561.034 152.651C559.524 146.662 557.246 140.892 554.256 135.483C550.121 128.231 546.935 125.085 543.919 123.567C540.904 122.048 533.582 118.221 525.809 118.732C521.693 118.965 517.594 119.425 513.529 120.111V120.111Z" fill="#EEF5F7"/>
<path d="M525.747 118.779L523.4 107.932C523.4 107.932 526.603 107.932 527.598 105.639C527.787 105.126 527.868 104.58 527.836 104.035C527.803 103.489 527.657 102.957 527.407 102.47C527.157 101.984 526.809 101.554 526.384 101.209C525.96 100.864 525.467 100.61 524.939 100.464C523.977 100.305 522.995 100.305 522.032 100.464L520.82 95.3657C520.54 95.3657 520.291 96.9152 520.291 96.9152L509.597 97.2716L508.928 94.4979L506.876 97.2096L504.467 97.3956L505.571 108.382C505.571 108.382 506.705 117.074 510.234 117.028C513.763 116.981 513.545 116.765 513.545 116.765L514.493 121.243C514.493 121.243 512.581 131.408 517.291 131.098C522.001 130.788 524.442 124.419 524.877 122.808C525.313 121.196 525.747 118.779 525.747 118.779Z" fill="white"/>
<path d="M555.905 221.698V223.248C555.905 223.248 551.583 229.895 550.713 231.212C550.474 231.566 550.318 231.968 550.257 232.39C550.196 232.812 550.231 233.242 550.359 233.648C550.487 234.055 550.706 234.427 550.999 234.738C551.292 235.048 551.651 235.289 552.05 235.442C553.915 235.954 555.905 233.474 557.008 232.111C558.112 230.747 559.667 229.012 561.252 229.151C564.979 229.342 568.652 230.121 572.133 231.46C576.968 233.412 577.667 234.373 579.797 234.42C580.438 234.466 581.081 234.348 581.663 234.077C582.245 233.806 582.748 233.39 583.124 232.87C583.686 233.024 584.277 233.032 584.843 232.894C585.409 232.755 585.93 232.475 586.357 232.08C588.16 230.701 586.808 229.368 586.808 229.368C587.105 229.185 587.322 228.896 587.414 228.559C587.506 228.223 587.468 227.864 587.305 227.555C586.854 226.223 584.974 225.401 582.797 224.301C580.621 223.201 577.605 222.907 575.647 221.636C574.324 220.741 573.053 219.774 571.838 218.738C569.23 219.529 566.578 220.165 563.895 220.644C561.253 221.146 558.586 221.498 555.905 221.698V221.698Z" fill="white"/>
<path d="M546.158 125.085C545.196 122.036 543.474 119.28 541.153 117.074C537.515 113.851 530.846 113.418 530.846 113.418C530.846 113.418 527.489 116.517 525.452 116.517L525.919 118.81C529.043 118.724 532.159 119.164 535.136 120.111C538.919 121.52 542.601 123.182 546.158 125.085V125.085Z" fill="#161618"/>
<path d="M523.898 110.164C526.386 109.248 528.41 107.387 529.525 104.988C531.028 101.499 531.307 97.607 530.318 93.9402C529.463 90.2988 527.877 86.9673 524.582 86.301C522.476 85.9131 520.313 85.9553 518.224 86.425C515.956 85.2749 513.366 84.9201 510.871 85.4178C506.752 86.27 502.12 89.3691 502.228 97.5351L506.69 97.2096L508.851 94.2811L509.301 97.1477L520.291 96.8687C520.291 96.8687 521.007 92.9795 521.007 93.1189C520.856 95.6057 521.205 98.0975 522.032 100.448C522.032 100.448 526.323 99.131 527.38 102.354C528.437 105.577 526.525 108.072 523.4 107.886C520.276 107.7 523.4 107.7 523.4 107.7L523.898 110.164Z" fill="#161618"/>
<path d="M527.83 107.591C528.876 108.646 529.724 109.88 530.333 111.233C530.893 112.906 530.333 115.06 525.669 116.548C525.188 116.548 523.819 110.179 523.819 110.179C523.819 110.179 526.975 109.249 527.83 107.591Z" fill="#FFCE26"/>
<path d="M564.811 168.022C562.314 168.709 560.174 170.319 558.828 172.525C557.481 174.731 557.031 177.366 557.567 179.892C559.122 189.437 566.754 191.033 569.77 189.948L564.811 168.022Z" fill="#CCCCCC"/>
<path d="M441.557 178.404C443.111 181.023 442.909 183.952 441.183 184.959C439.458 185.966 436.815 184.633 435.307 182.015C433.8 179.396 433.955 176.468 435.681 175.476C437.406 174.484 440.049 175.77 441.557 178.404Z" fill="white"/>
<path d="M433.551 205.505C429.884 208.098 426.903 211.54 424.864 215.534C422.825 219.529 421.789 223.957 421.846 228.438H497.331C502.994 229.803 508.792 230.53 514.617 230.608C524.255 230.732 530.551 229.957 535.292 228.531C540.033 227.106 542.598 225.603 544.168 222.256C545.117 220.244 545.645 218.062 545.722 215.841L544.168 206.652C544.168 206.652 538.479 210.015 529.167 208.79C524.019 208.18 518.952 207.011 514.057 205.304L433.551 205.505Z" fill="#161618"/>
<path d="M333.785 205.103C333.785 205.103 325.795 202.313 326.526 195.17C327.256 188.027 331.407 182.17 335.853 177.676C340.298 173.183 349.843 164.164 359.061 160.988C358.339 166.951 357.233 172.862 355.75 178.683C353.683 185.935 351.086 196.363 345.366 202.05C339.646 207.737 333.785 205.103 333.785 205.103Z" fill="#161618"/>
<path d="M326.059 170.161L313.421 112.829C313.421 112.829 303.302 127.782 302.804 142.889C302.492 149.526 304.72 156.034 309.037 161.096C313.354 166.159 319.438 169.399 326.059 170.161V170.161Z" fill="#161618"/>
<path d="M299.027 95.9701H386.528C388.905 95.9619 391.181 95.0173 392.862 93.3423C394.542 91.6674 395.49 89.3981 395.498 87.0294V70.2171L379.362 61.9891C374.716 59.927 369.494 59.5435 364.595 60.9045L352.485 65.0107C347.629 66.3491 342.444 65.7951 337.982 63.4612L325.002 55.7136C325.002 55.7136 312.069 46.4165 302.027 56.8138C294.876 64.174 290.042 69.0239 290.042 69.0239V86.9674C290.038 88.1469 290.267 89.3156 290.717 90.4066C291.166 91.4977 291.827 92.4897 292.662 93.3259C293.496 94.1621 294.488 94.826 295.58 95.2797C296.672 95.7334 297.844 95.968 299.027 95.9701V95.9701Z" fill="#161618"/>
<path d="M370.564 45.0373C368.719 45.0373 366.916 44.492 365.382 43.4704C363.849 42.4489 362.653 40.9969 361.947 39.298C361.241 37.5992 361.057 35.7299 361.417 33.9264C361.776 32.123 362.665 30.4664 363.969 29.1661C365.273 27.8659 366.935 26.9805 368.745 26.6217C370.554 26.263 372.429 26.4471 374.133 27.1508C375.838 27.8545 377.294 29.0461 378.319 30.575C379.344 32.1039 379.891 33.9014 379.891 35.7402C379.891 38.206 378.908 40.5707 377.159 42.3143C375.41 44.0578 373.038 45.0373 370.564 45.0373V45.0373Z" fill="white"/>
<path d="M401.404 102.06L383.808 91.213C383.64 91.1062 383.446 91.048 383.247 91.0447C383.048 91.0415 382.853 91.0934 382.682 91.1946C382.511 91.2959 382.371 91.4426 382.279 91.6182C382.187 91.7938 382.146 91.9915 382.16 92.1892L383.17 112.782C383.182 112.959 383.237 113.129 383.331 113.279C383.426 113.429 383.555 113.553 383.709 113.64C383.863 113.728 384.037 113.776 384.214 113.78C384.391 113.785 384.566 113.745 384.725 113.666L389.481 110.861C389.608 110.781 389.749 110.727 389.897 110.703C390.045 110.679 390.197 110.685 390.342 110.721C390.488 110.758 390.624 110.823 390.744 110.914C390.863 111.004 390.962 111.118 391.036 111.248L397.953 122.947C398.027 123.077 398.126 123.191 398.246 123.282C398.365 123.372 398.502 123.438 398.647 123.474C398.792 123.51 398.944 123.517 399.092 123.493C399.24 123.469 399.381 123.415 399.508 123.335L403.27 121.119C403.4 121.045 403.514 120.946 403.605 120.827C403.696 120.708 403.762 120.572 403.798 120.427C403.835 120.282 403.841 120.131 403.817 119.984C403.793 119.836 403.739 119.695 403.658 119.569L396.741 107.87C396.655 107.747 396.596 107.606 396.569 107.458C396.541 107.311 396.545 107.159 396.58 107.012C396.615 106.866 396.681 106.729 396.773 106.61C396.865 106.491 396.981 106.392 397.114 106.321L401.435 103.78C401.566 103.676 401.671 103.544 401.742 103.393C401.813 103.243 401.848 103.078 401.845 102.912C401.842 102.746 401.801 102.582 401.724 102.435C401.648 102.287 401.538 102.159 401.404 102.06V102.06Z" fill="#FFCE26"/>
<path d="M503.27 5.23012H472.693C470.255 5.23012 468.278 7.20035 468.278 9.63075V28.2405C468.278 30.6709 470.255 32.6411 472.693 32.6411H503.27C505.708 32.6411 507.684 30.6709 507.684 28.2405V9.63075C507.684 7.20035 505.708 5.23012 503.27 5.23012Z" fill="#EEF5F7"/>
<path d="M498.295 7.02764C498.169 6.71975 497.954 6.45623 497.677 6.27075C497.401 6.08527 497.075 5.98622 496.741 5.98622C496.407 5.98622 496.081 6.08527 495.804 6.27075C495.528 6.45623 495.312 6.71975 495.186 7.02764L488.471 18.4941C487.585 20.0436 488.3 21.2057 490.026 21.2057H503.518C505.259 21.2057 505.959 19.9816 505.073 18.4941L498.295 7.02764Z" fill="white"/>
<path d="M430.613 70.7593C430.613 71.8259 430.296 72.8684 429.701 73.7552C429.107 74.6419 428.262 75.3331 427.274 75.7412C426.285 76.1493 425.197 76.2561 424.148 76.048C423.099 75.84 422.135 75.3264 421.378 74.5723C420.622 73.8182 420.107 72.8573 419.898 71.8113C419.689 70.7653 419.796 69.6811 420.206 68.6958C420.615 67.7104 421.309 66.8683 422.198 66.2758C423.088 65.6833 424.134 65.367 425.203 65.367C426.638 65.367 428.014 65.9351 429.029 66.9464C430.043 67.9576 430.613 69.3292 430.613 70.7593V70.7593Z" fill="#77C5EF"/>
<path d="M426.307 89.8029C426.307 90.8694 425.99 91.912 425.396 92.7987C424.801 93.6855 423.957 94.3766 422.968 94.7848C421.98 95.1929 420.892 95.2997 419.843 95.0916C418.793 94.8835 417.829 94.37 417.073 93.6159C416.316 92.8617 415.801 91.9009 415.592 90.8549C415.384 89.8089 415.491 88.7247 415.9 87.7393C416.309 86.754 417.003 85.9119 417.892 85.3194C418.782 84.7268 419.828 84.4106 420.898 84.4106C422.333 84.4106 423.709 84.9787 424.723 85.9899C425.738 87.0012 426.307 88.3727 426.307 89.8029V89.8029Z" fill="#77C5EF"/>
<path d="M427.334 116.532C427.334 117.602 427.016 118.647 426.419 119.537C425.823 120.426 424.976 121.119 423.985 121.528C422.993 121.938 421.902 122.045 420.85 121.836C419.798 121.627 418.831 121.112 418.072 120.356C417.314 119.6 416.797 118.636 416.588 117.587C416.378 116.538 416.486 115.451 416.896 114.463C417.307 113.475 418.002 112.63 418.894 112.036C419.787 111.441 420.836 111.124 421.909 111.124C422.622 111.122 423.328 111.261 423.987 111.532C424.646 111.803 425.245 112.201 425.749 112.704C426.253 113.206 426.653 113.803 426.925 114.46C427.197 115.117 427.336 115.821 427.334 116.532V116.532Z" fill="#77C5EF"/>
<path d="M313.468 203.398C315.051 202.419 316.327 201.018 317.151 199.352C317.976 197.687 318.315 195.825 318.131 193.977C317.665 187.283 313.468 183.13 305.307 176.932C297.146 170.734 281.865 165.946 281.865 165.946C281.865 165.946 284.43 174.267 285.643 177.707C286.855 181.147 292.715 195.836 298.343 201.058C303.97 206.28 309.037 207.101 313.468 203.398Z" fill="#FFCE26"/>
<path d="M510.996 90.9496C513.327 86.5799 514.105 85.8516 517.851 86.425C516.811 85.8079 515.659 85.4013 514.462 85.2285C513.264 85.0556 512.044 85.12 510.871 85.4178C506.752 86.27 502.12 89.3691 502.228 97.535L506.69 97.2096L508.851 94.281L509.301 97.1477H511.089C510.305 95.1613 510.272 92.9585 510.996 90.9496V90.9496Z" fill="white"/>
<path d="M377.855 96.5899H299.027C296.553 96.5899 294.181 95.6104 292.432 93.8669C290.683 92.1233 289.7 89.7586 289.7 87.2928V20.9734C289.7 18.5077 290.683 16.1429 292.432 14.3994C294.181 12.6558 296.553 11.6763 299.027 11.6763H386.529C389.002 11.6763 391.375 12.6558 393.124 14.3994C394.873 16.1429 395.855 18.5077 395.855 20.9734V87.2618C395.867 88.8905 395.448 90.4935 394.643 91.9104C394.721 90.2524 395.109 88.8114 395.109 87.2618V20.9734C395.105 18.7021 394.198 16.525 392.587 14.9189C390.976 13.3128 388.792 12.4087 386.513 12.4046H299.012C296.73 12.4046 294.542 13.3069 292.927 14.9134C291.313 16.5199 290.404 18.6994 290.4 20.9734V87.2618C290.404 89.5373 291.312 91.7184 292.926 93.3274C294.541 94.9364 296.729 95.8421 299.012 95.8462H377.839C378.228 96.4195 378.072 96.5899 377.855 96.5899Z" fill="#161618"/>
<path d="M551.754 229.12H534.515C534.515 228.376 551.754 228.376 551.754 228.376C552.127 228.965 551.956 229.12 551.754 229.12Z" fill="#161618"/>
<path d="M498.046 229.12H289.995C289.995 228.376 498 228.376 498 228.376C498.42 228.965 498.295 229.12 498.046 229.12Z" fill="#161618"/>
<path d="M606.782 229.12H587.289C587.289 228.376 606.782 228.376 606.782 228.376C607.109 228.965 606.984 229.12 606.782 229.12Z" fill="#161618"/>
<path d="M511.12 117.446C510.671 117.454 510.225 117.386 509.799 117.245C508.967 116.912 508.249 116.347 507.731 115.618C505.586 112.798 505.244 109.234 504.918 105.809V104.911C504.7 102.803 504.467 97.504 504.467 97.4575C505.213 97.4575 505.446 102.757 505.664 104.833V105.732C505.975 109.063 506.301 112.503 508.322 115.184C508.754 115.79 509.354 116.259 510.047 116.532C511.027 116.781 512.058 116.744 513.016 116.424L513.825 116.253C515.145 115.998 516.448 115.661 517.727 115.246C516.7 116.223 515.377 116.834 513.965 116.981L513.172 117.152C512.502 117.328 511.813 117.427 511.12 117.446Z" fill="#161618"/>
<path d="M514.788 100.417C514.493 100.417 514.306 100.557 514.337 101.641C514.368 102.726 514.71 103.005 514.975 102.974C515.239 102.943 515.472 102.525 515.363 101.688C515.254 100.851 515.192 100.448 514.788 100.417Z" fill="#161618"/>
<path d="M506.845 101.083C506.534 101.083 506.348 101.207 506.348 102.276C506.348 103.346 506.674 103.671 506.938 103.624C507.203 103.578 507.451 103.206 507.373 102.354C507.296 101.502 507.234 101.114 506.845 101.083Z" fill="#161618"/>
<path d="M504.964 99.5804C505.181 98.4182 505.85 98.0309 507.389 98.1858C506.581 98.4309 505.846 98.8668 505.244 99.4564C505.208 99.4949 505.165 99.5257 505.116 99.547C505.068 99.5683 505.016 99.5797 504.964 99.5804V99.5804Z" fill="#161618"/>
<path d="M523.851 108.258C523.32 108.264 522.793 108.169 522.297 107.979C522.97 107.666 523.7 107.492 524.442 107.467C524.898 107.386 525.333 107.215 525.723 106.965C526.112 106.715 526.448 106.391 526.712 106.011C526.979 105.635 527.168 105.21 527.267 104.76C527.366 104.31 527.372 103.845 527.287 103.392C527.213 102.937 527.047 102.501 526.799 102.112C526.55 101.723 526.224 101.389 525.841 101.13C525.171 100.656 524.356 100.432 523.538 100.497C522.719 100.562 521.95 100.912 521.364 101.486C521.4 101.036 521.606 100.615 521.94 100.31C522.275 100.005 522.714 99.8385 523.167 99.8438C523.72 99.742 524.286 99.7497 524.836 99.8663C525.385 99.983 525.905 100.206 526.368 100.524C526.831 100.841 527.226 101.246 527.532 101.715C527.838 102.185 528.047 102.71 528.15 103.26C528.252 103.811 528.244 104.376 528.127 104.923C528.01 105.471 527.786 105.99 527.468 106.451C527.149 106.912 526.743 107.306 526.272 107.611C525.801 107.916 525.274 108.125 524.722 108.227C524.434 108.268 524.142 108.279 523.851 108.258Z" fill="#161618"/>
<path d="M525.25 106.042C525.11 106.042 522.016 104.818 522.016 104.818C521.845 104.26 524.022 101.378 524.022 101.378C524.612 101.827 522.747 104.306 522.747 104.306L525.39 105.314C525.545 105.871 525.405 106.042 525.25 106.042Z" fill="#161618"/>
<path d="M517.353 131.423C516.861 131.423 516.377 131.306 515.939 131.082C515.364 130.66 514.882 130.124 514.524 129.508C514.166 128.892 513.938 128.21 513.856 127.503C513.735 126.473 513.735 125.433 513.856 124.404V123.443L513.949 121.63L513.125 116.827C513.871 116.703 514.679 121.584 514.679 121.584C514.679 121.584 514.602 123.427 514.602 123.474C514.602 123.799 514.602 124.125 514.602 124.45C514.485 125.438 514.485 126.437 514.602 127.425C514.658 128.029 514.837 128.616 515.128 129.149C515.42 129.682 515.817 130.15 516.296 130.524C516.634 130.672 516.999 130.748 517.369 130.748C517.738 130.748 518.103 130.672 518.441 130.524C522.887 128.975 524.659 123.242 525.374 118.763C525.048 125.597 522.483 129.858 518.69 131.16C518.262 131.32 517.81 131.409 517.353 131.423V131.423Z" fill="#161618"/>
<path d="M512.534 111.062C512.291 111.084 512.047 111.084 511.804 111.062C512.783 110.458 513.467 110.319 513.934 109.916C514.426 109.397 514.699 108.709 514.695 107.994C515.441 107.994 515.457 109.544 514.416 110.473C513.884 110.897 513.213 111.107 512.534 111.062Z" fill="#161618"/>
<path d="M525.748 119.151C525.39 118.856 523.043 108.304 523.043 108.304C523.774 108.149 526.152 118.701 526.152 118.701C525.81 119.151 525.779 119.151 525.748 119.151Z" fill="#161618"/>
<path d="M508.726 108.707C507.98 107.7 507.172 105.763 507.669 105.035C508.027 104.585 509.021 104.678 509.814 104.818L509.519 100.169C510.265 100.169 510.591 105.329 510.591 105.329C509.317 105.515 508.431 105.453 508.244 105.577C508.287 106.514 508.565 107.425 509.053 108.227C508.835 108.692 508.788 108.707 508.726 108.707Z" fill="#161618"/>
<path d="M552.826 235.984C552.15 235.992 551.49 235.78 550.946 235.38C550.402 234.98 550.003 234.415 549.81 233.769C549.731 233.153 549.784 232.528 549.966 231.935C550.148 231.342 550.456 230.794 550.868 230.329C551.008 230.096 551.148 229.895 551.272 229.678C551.747 228.955 552.266 228.261 552.826 227.602C553.995 226.254 554.944 224.733 555.64 223.093L555.749 221.667C556.495 221.667 556.371 223.216 556.371 223.216C555.66 224.971 554.667 226.598 553.433 228.035C552.917 228.677 552.434 229.344 551.987 230.034L551.567 230.716C551.219 231.097 550.952 231.545 550.784 232.033C550.615 232.521 550.548 233.037 550.588 233.552C550.771 234.119 551.158 234.599 551.674 234.899C552.191 235.2 552.8 235.299 553.386 235.179C554.063 234.976 554.668 234.583 555.127 234.048C555.616 233.511 556.068 232.941 556.479 232.343C556.806 231.878 557.164 231.382 557.552 230.933C557.994 230.262 558.603 229.717 559.32 229.35C560.036 228.984 560.836 228.808 561.64 228.841C565.032 229.068 568.377 229.745 571.589 230.856C572.536 231.235 573.46 231.669 574.356 232.157C576.89 233.459 579.501 234.807 582.035 233.707C582.292 233.608 582.514 233.436 582.672 233.211C582.761 233.008 582.794 232.785 582.77 232.565C582.745 232.345 582.663 232.135 582.532 231.956C581.695 230.827 580.638 229.878 579.423 229.167C578.052 228.227 576.601 227.407 575.086 226.718C573.497 225.957 571.836 225.355 570.128 224.921C571.953 224.764 573.784 225.158 575.382 226.052C576.837 226.691 578.231 227.458 579.548 228.345C580.966 229.164 582.203 230.261 583.185 231.568C583.393 231.861 583.517 232.204 583.544 232.562C583.571 232.919 583.501 233.277 583.341 233.598C583.101 233.953 582.76 234.229 582.362 234.388C579.501 235.69 576.594 234.187 574.029 232.839C573.169 232.349 572.276 231.919 571.356 231.553C568.207 230.454 564.923 229.787 561.594 229.569C560.908 229.557 560.23 229.719 559.624 230.038C559.018 230.358 558.503 230.826 558.127 231.398C557.77 231.832 557.428 232.312 557.101 232.761C556.67 233.386 556.197 233.982 555.686 234.543C555.129 235.186 554.394 235.649 553.573 235.876C553.331 235.95 553.079 235.987 552.826 235.984V235.984Z" fill="#161618"/>
<path d="M584.071 233.288C583.812 233.315 583.552 233.315 583.294 233.288C583.542 232.56 585.734 232.994 586.667 231.135C586.758 230.957 586.806 230.761 586.806 230.561C586.806 230.362 586.758 230.165 586.667 229.988C585.688 227.834 580.154 225.045 573.205 223.201C579.423 224.084 586.107 226.92 587.351 229.693C587.489 229.97 587.561 230.275 587.561 230.584C587.561 230.894 587.489 231.199 587.351 231.475C587.032 232.056 586.555 232.534 585.974 232.855C585.394 233.176 584.734 233.326 584.071 233.288V233.288Z" fill="#161618"/>
<path d="M553.401 222.039C551.123 222.065 548.847 221.915 546.593 221.589C540.686 188.848 533.317 142.456 533.24 141.991C534.064 142.332 541.385 188.476 546.981 220.892C556.493 222.038 566.14 220.681 574.962 216.956C574.138 212.757 564.593 164.707 558.733 146.205C558.049 144.067 551.878 128.913 544.541 124.512C538.846 121.145 532.368 119.318 525.747 119.213C532.465 118.805 539.15 120.425 544.929 123.861C552.469 128.51 558.749 143.881 559.448 146.05C565.557 165.342 575.646 216.647 575.755 217.173C568.766 220.452 561.125 222.115 553.401 222.039V222.039Z" fill="#161618"/>
<path d="M586.901 229.895C586.668 229.229 587.056 228.857 586.901 228.221C586.745 227.586 585.906 226.207 582.626 224.689C581.241 224.081 579.819 223.563 578.367 223.139C575.522 222.209 573.051 221.419 571.512 218.986C573.591 220.641 576.011 221.816 578.6 222.426C580.073 222.863 581.521 223.38 582.937 223.976C585.828 225.308 587.414 226.687 587.6 228.082C587.65 228.384 587.63 228.693 587.541 228.986C587.452 229.279 587.297 229.547 587.088 229.771C587.038 229.828 586.973 229.871 586.901 229.895Z" fill="#161618"/>
<path d="M448.552 229.12C448.35 222.209 449.08 215.639 453.324 211.75C457.143 208.166 462.002 205.877 467.205 205.211C462.264 206.465 457.699 208.889 453.899 212.277C449.857 215.98 449.142 222.38 448.987 228.748C448.988 228.803 448.976 228.857 448.954 228.906C448.931 228.956 448.898 229 448.857 229.036C448.815 229.071 448.766 229.097 448.713 229.112C448.661 229.126 448.606 229.129 448.552 229.12V229.12Z" fill="#161618"/>
<path d="M515.705 230.995C493.025 230.995 486.481 223.945 486.17 223.635C486.792 223.216 493.74 230.623 517.617 230.22C541.867 229.802 544.401 224.022 545.333 215.794C545.1 224.441 542.489 230.53 517.633 230.964L515.705 230.995Z" fill="#161618"/>
<path d="M524.085 110.535C529.525 107.87 531.857 100.712 529.634 92.778C529.374 91.5774 528.861 90.4455 528.13 89.4572C527.398 88.4688 526.464 87.6466 525.39 87.0447C523.157 86.0905 520.647 85.9966 518.348 86.7814C517.696 86.6109 508.82 82.7836 504.249 90.2678C502.898 92.2891 502.294 94.7156 502.539 97.1321L506.939 96.7757L508.493 93.9091C509.193 94.0331 509.674 96.8532 509.674 96.8532L519.918 96.5123L520.525 92.9019C521.271 93.0104 521.473 98.5267 522.328 100.293C521.193 99.6579 520.913 97.7829 520.773 96.1404L520.634 96.9307C520.292 97.2406 509.395 97.6125 509.395 97.6125C509.023 96.851 508.776 96.0348 508.664 95.1952L507.483 97.3181C507.187 97.504 502.244 97.9069 502.244 97.9069C501.809 97.4885 500.97 94.2035 503.597 89.8804C508.182 82.3652 516.996 85.5417 518.209 86.0376C520.665 85.2093 523.342 85.3253 525.717 86.363C526.887 87.0114 527.908 87.8985 528.711 88.9665C529.515 90.0345 530.083 91.2593 530.38 92.561C532.774 100.882 530.194 108.413 524.24 110.504L524.085 110.535Z" fill="#161618"/>
<path d="M517.478 99.9212C515.286 97.349 513.187 98.6661 513.094 98.7281C512.721 98.0928 515.457 96.3264 517.757 99.3169C517.649 99.8438 517.555 99.9212 517.478 99.9212Z" fill="#161618"/>
<path d="M569.801 190.103C564.252 191.25 558.92 187.205 557.676 181.131C556.433 175.057 559.34 169.2 564.889 168.053L569.801 190.103Z" fill="#161618"/>
<path d="M567.873 190.677C565.282 190.558 562.812 189.551 560.88 187.826C558.949 186.1 557.674 183.763 557.272 181.209C556.615 178.294 557 175.241 558.36 172.578C558.996 171.335 559.905 170.251 561.019 169.406C562.133 168.561 563.424 167.977 564.795 167.697C562.386 168.814 560.374 170.635 559.028 172.919C557.752 175.431 557.389 178.306 558.002 181.054C559.246 187.02 564.376 190.816 569.707 189.747C569.527 190.064 569.257 190.321 568.931 190.487C568.604 190.652 568.237 190.718 567.873 190.677V190.677Z" fill="#161618"/>
<path d="M484.026 200.237C484.942 198.994 485.572 197.565 485.87 196.052C486.168 194.539 486.128 192.978 485.751 191.482L472.958 158.292C472.156 156.564 470.854 155.116 469.22 154.133C467.585 153.15 465.693 152.677 463.786 152.775H415.24C412.559 153.039 409.967 153.874 407.639 155.224C408.913 153.55 412.862 152.032 415.24 152.032H463.786C465.845 151.931 467.886 152.449 469.646 153.518C471.406 154.587 472.804 156.158 473.657 158.028L486.451 191.219C486.93 192.765 486.979 194.412 486.593 195.984C486.207 197.555 485.4 198.993 484.259 200.144C484.196 200.203 484.112 200.237 484.026 200.237V200.237Z" fill="#161618"/>
<path d="M473.813 203.847H425.235C423.177 203.946 421.136 203.43 419.374 202.364C417.613 201.298 416.211 199.732 415.349 197.866L411.758 188.569C412.457 188.306 416.048 197.603 416.048 197.603C416.856 199.327 418.162 200.772 419.799 201.752C421.436 202.732 423.328 203.202 425.235 203.104H473.766C475.386 203.161 476.997 202.826 478.459 202.127C479.921 201.428 481.191 200.386 482.16 199.09C482.801 198.205 483.209 197.174 483.347 196.092C483.486 195.009 483.35 193.909 482.953 192.892L470.16 159.686C469.351 157.962 468.045 156.517 466.409 155.537C464.772 154.557 462.879 154.087 460.973 154.185H412.489C410.868 154.128 409.258 154.463 407.796 155.162C406.334 155.861 405.064 156.903 404.094 158.199C403.454 159.084 403.046 160.115 402.907 161.197C402.769 162.28 402.904 163.38 403.301 164.397L407.079 174.19C406.379 174.469 402.602 164.66 402.602 164.66C402.156 163.53 402.003 162.306 402.155 161.102C402.307 159.897 402.76 158.75 403.472 157.765C404.51 156.367 405.873 155.242 407.443 154.486C409.014 153.73 410.745 153.366 412.489 153.426H460.988C463.046 153.327 465.087 153.844 466.849 154.91C468.611 155.975 470.012 157.542 470.875 159.407L483.668 192.613C484.114 193.743 484.267 194.967 484.115 196.172C483.963 197.377 483.51 198.524 482.798 199.509C481.763 200.902 480.405 202.024 478.841 202.78C477.276 203.536 475.55 203.902 473.813 203.847V203.847Z" fill="#161618"/>
<path d="M441.588 183.518C440.927 183.508 440.278 183.343 439.692 183.037C438.437 182.334 437.395 181.307 436.676 180.063C435.957 178.82 435.586 177.407 435.604 175.972C435.567 175.378 435.697 174.786 435.98 174.263C436.263 173.739 436.686 173.304 437.204 173.008C437.721 172.712 438.311 172.565 438.907 172.585C439.503 172.605 440.082 172.79 440.578 173.121C441.846 173.807 442.892 174.839 443.594 176.096C444.335 177.324 444.708 178.738 444.666 180.171C444.678 180.755 444.541 181.332 444.27 181.849C443.998 182.367 443.6 182.807 443.112 183.13C442.651 183.4 442.123 183.535 441.588 183.518V183.518ZM438.682 173.384C438.295 173.378 437.915 173.475 437.578 173.663C437.193 173.923 436.879 174.274 436.665 174.686C436.45 175.097 436.342 175.555 436.35 176.018C436.345 177.307 436.683 178.575 437.331 179.691C437.978 180.807 438.911 181.732 440.034 182.371C440.419 182.642 440.874 182.797 441.345 182.819C441.816 182.84 442.283 182.727 442.692 182.493C443.1 182.258 443.433 181.912 443.651 181.495C443.868 181.078 443.962 180.608 443.92 180.14C443.925 178.851 443.587 177.583 442.939 176.467C442.292 175.351 441.359 174.426 440.236 173.787C439.76 173.52 439.227 173.371 438.682 173.353V173.384Z" fill="#161618"/>
<path d="M506.456 205.893H423.68C422.935 205.854 422.232 205.535 421.712 205C421.193 204.465 420.897 203.755 420.882 203.011C421.659 203.987 422.53 205.118 423.68 205.118H506.518C507.031 205.139 507.531 204.957 507.91 204.612C508.289 204.266 508.515 203.785 508.539 203.274V202.112C508.515 201.601 508.289 201.12 507.91 200.775C507.531 200.429 507.031 200.247 506.518 200.268H482.268C482.268 199.493 506.518 199.493 506.518 199.493C507.237 199.472 507.935 199.736 508.459 200.227C508.984 200.718 509.292 201.395 509.316 202.112V203.29C509.302 203.649 509.217 204.001 509.065 204.327C508.913 204.653 508.698 204.945 508.432 205.187C508.166 205.43 507.854 205.617 507.515 205.738C507.176 205.859 506.816 205.912 506.456 205.893V205.893Z" fill="#161618"/>
<path d="M421.846 228.81C421.723 224.18 422.764 219.593 424.874 215.466C426.983 211.339 430.094 207.803 433.924 205.18C434.188 205.893 422.265 213.207 422.219 228.423C422.221 228.473 422.213 228.523 422.195 228.57C422.177 228.617 422.15 228.66 422.115 228.696C422.08 228.732 422.038 228.761 421.992 228.78C421.946 228.8 421.896 228.81 421.846 228.81Z" fill="#161618"/>
<path d="M533.069 209.503C532.307 209.503 531.514 209.503 530.737 209.395C525.007 208.688 519.345 207.511 513.809 205.877H506.456C506.456 205.134 513.871 205.134 513.871 205.134C519.415 206.758 525.081 207.934 530.815 208.651C535.34 209.064 539.893 208.256 543.997 206.311C544.136 207.086 539.442 209.503 533.069 209.503Z" fill="#161618"/>
<path d="M525.25 116.889C528.126 115.339 529.804 114.239 530.115 112.798C530.597 110.489 527.551 108.01 527.519 107.979C528.126 107.514 531.437 110.195 530.846 112.953C530.473 114.704 528.623 116.052 525.343 116.873L525.25 116.889Z" fill="#161618"/>
<path d="M546.36 125.659C541.277 112.658 530.691 113.851 530.582 113.867C530.582 113.108 541.774 111.853 546.702 125.163C546.484 125.659 546.391 125.659 546.36 125.659Z" fill="#161618"/>
<path d="M478.087 169.975C481.223 163.948 483.564 157.542 485.051 150.916C492.217 120.84 513.84 119.709 514.057 119.693C513.886 120.452 492.808 121.599 485.781 151.086C484.436 157.708 481.937 164.043 478.398 169.805C478.364 169.856 478.318 169.899 478.264 169.929C478.21 169.959 478.149 169.975 478.087 169.975Z" fill="#161618"/>
<path d="M543.142 113.789C542.769 113.418 542.769 53.3582 542.769 53.3582C542.736 51.0581 541.79 48.8647 540.138 47.2586C538.486 45.6525 536.262 44.7646 533.955 44.7894H400.674C400.674 44.0456 533.955 44.0456 533.955 44.0456C536.458 44.0208 538.868 44.9849 540.66 46.7272C542.451 48.4695 543.478 50.848 543.515 53.3427V113.418C543.515 113.516 543.476 113.611 543.406 113.681C543.336 113.75 543.241 113.789 543.142 113.789Z" fill="#161618"/>
<path d="M318.085 107.591C317.712 107.22 317.712 96.187 317.712 96.187C318.458 96.187 318.458 107.22 318.458 107.22C318.458 107.318 318.419 107.413 318.349 107.482C318.279 107.552 318.184 107.591 318.085 107.591V107.591Z" fill="#161618"/>
<path d="M414.571 200.237H355.175C355.175 199.493 414.571 199.493 414.571 199.493C414.944 200.067 414.773 200.237 414.571 200.237Z" fill="#161618"/>
<path d="M395.498 70.5889C395.327 70.5889 379.191 62.33 379.191 62.33C374.642 60.2957 369.52 59.9173 364.719 61.2608L352.61 65.3515C347.649 66.7382 342.344 66.184 337.78 63.802L324.816 56.0544C324.66 55.9614 311.991 47.1137 302.291 57.0926C295.219 64.3753 290.368 69.2563 290.306 69.3028C289.824 68.7295 294.69 63.8485 301.747 56.5812C311.914 46.122 325.065 55.3416 325.22 55.4346L338.169 63.1822C342.538 65.4717 347.615 66.0254 352.377 64.7317L364.486 60.641C369.476 59.2386 374.802 59.6279 379.533 61.7411L395.669 69.9691C395.778 70.5114 395.7 70.5889 395.498 70.5889Z" fill="#161618"/>
<path d="M364.719 45.4092C362.809 45.4092 360.943 44.8449 359.356 43.7875C357.768 42.7302 356.531 41.2274 355.8 39.4691C355.07 37.7108 354.878 35.776 355.251 33.9094C355.623 32.0429 356.543 30.3283 357.893 28.9826C359.243 27.6368 360.963 26.7204 362.835 26.3491C364.708 25.9778 366.649 26.1683 368.413 26.8966C370.177 27.625 371.684 28.8583 372.745 30.4407C373.806 32.0231 374.372 33.8836 374.372 35.7867C374.368 38.3375 373.35 40.7826 371.54 42.5863C369.731 44.39 367.278 45.4051 364.719 45.4092V45.4092ZM364.719 26.908C362.957 26.908 361.235 27.4287 359.77 28.4043C358.305 29.3799 357.164 30.7666 356.489 32.389C355.815 34.0113 355.639 35.7965 355.983 37.5189C356.326 39.2412 357.175 40.8232 358.42 42.0649C359.666 43.3067 361.253 44.1523 362.981 44.4949C364.709 44.8374 366.5 44.6616 368.127 43.9896C369.755 43.3176 371.146 42.1796 372.125 40.7195C373.103 39.2594 373.626 37.5428 373.626 35.7867C373.622 33.4332 372.682 31.1772 371.012 29.513C369.343 27.8488 367.08 26.912 364.719 26.908V26.908Z" fill="#161618"/>
<path d="M493.927 200.237C497.968 197.897 498.45 185.517 498.124 179.195C496.88 155.069 497.036 148.902 498.217 141.448C497.797 148.948 497.626 155.1 498.87 179.164C498.963 181.085 499.678 198.021 494.067 200.206L493.927 200.237Z" fill="#161618"/>
<path d="M486.45 200.082C494.875 193.59 498.186 181.085 498.218 180.961C498.902 181.287 495.528 194.055 486.668 200.02C486.604 200.064 486.528 200.086 486.45 200.082V200.082Z" fill="#161618"/>
<path d="M500.565 23.2666H487.072C486.667 23.3316 486.251 23.272 485.881 23.0958C485.51 22.9195 485.202 22.6349 484.998 22.2799C484.794 21.9249 484.703 21.5163 484.738 21.1085C484.772 20.7006 484.93 20.313 485.191 19.9971L491.907 8.53067C492.057 8.1468 492.32 7.817 492.661 7.58449C493.002 7.35199 493.405 7.22762 493.819 7.22762C494.232 7.22762 494.636 7.35199 494.977 7.58449C495.318 7.817 495.581 8.1468 495.731 8.53067L502.446 19.9971C502.707 20.313 502.865 20.7006 502.9 21.1085C502.934 21.5163 502.844 21.9249 502.639 22.2799C502.435 22.6349 502.127 22.9195 501.757 23.0958C501.386 23.272 500.97 23.3316 500.565 23.2666V23.2666ZM493.819 7.97282C493.541 8.00154 493.276 8.10453 493.051 8.27087C492.827 8.43722 492.652 8.66079 492.544 8.91805L485.829 20.3845C485.663 20.6032 485.558 20.8619 485.525 21.1341C485.493 21.4064 485.533 21.6824 485.642 21.934C485.806 22.1509 486.025 22.3209 486.276 22.427C486.527 22.533 486.802 22.5714 487.072 22.5383H500.565C500.836 22.5714 501.11 22.533 501.361 22.427C501.612 22.3209 501.831 22.1509 501.995 21.934C502.105 21.6824 502.145 21.4064 502.112 21.1341C502.079 20.8619 501.975 20.6032 501.809 20.3845L495.078 8.91805C494.972 8.66292 494.799 8.44075 494.577 8.27456C494.356 8.10837 494.094 8.00418 493.819 7.97282V7.97282Z" fill="#161618"/>
<path d="M505.197 29.3251H479.19C477.777 29.3211 476.424 28.7598 475.425 27.7639C474.426 26.7681 473.862 25.4186 473.858 24.0103V6.50076C473.858 5.09117 474.42 3.73931 475.42 2.74258C476.42 1.74585 477.776 1.18587 479.19 1.18587H508.725C509.427 1.18384 510.122 1.31984 510.77 1.58602C511.419 1.85221 512.009 2.24336 512.506 2.7371C513.002 3.23083 513.396 3.81739 513.665 4.46323C513.934 5.10907 514.073 5.8015 514.073 6.50076V20.9113C513.326 20.9113 513.326 6.50076 513.326 6.50076C513.306 5.28136 512.806 4.11878 511.934 3.26369C511.061 2.4086 509.887 1.92949 508.663 1.92966H479.128C477.905 1.92949 476.73 2.4086 475.858 3.26369C474.985 4.11878 474.485 5.28136 474.465 6.50076V24.0103C474.485 25.2297 474.985 26.3923 475.858 27.2474C476.73 28.1025 477.905 28.5816 479.128 28.5814H505.134C505.57 29.1702 505.414 29.3251 505.197 29.3251Z" fill="#161618"/>
<path d="M331.826 174.314C331.624 174.314 316.608 171.85 310.638 159.392C305.586 148.824 308.353 134.367 318.861 116.455C319.545 116.563 332.199 173.787 332.199 173.787C331.966 174.221 331.966 174.314 331.826 174.314ZM319.033 117.663C309.053 134.971 306.457 148.886 311.26 159.066C316.405 169.913 328.562 172.904 331.282 173.477L319.033 117.663Z" fill="#161618"/>
<path d="M309.939 203.662C306.038 203.662 302.167 201.058 298.265 195.914C304.483 203.073 310.219 204.886 315.8 200.857C319.842 197.944 321.349 194.333 320.308 190.119C317.448 178.637 296.649 165.946 285.099 164.025C285.565 165.729 287.151 171.246 289.591 177.537C287.373 173.064 285.578 168.395 284.229 163.591C296.245 164.753 318.069 177.94 321.038 189.933C322.158 194.473 320.541 198.347 316.235 201.446C314.426 202.831 312.221 203.607 309.939 203.662Z" fill="#161618"/>
<path d="M341.293 208.744C339.56 208.712 337.858 208.283 336.319 207.489C331.655 205.211 329.526 201.725 329.867 197.138C330.816 184.633 350.993 166.799 362.636 163.049C362.947 164.955 358.75 200.485 345.848 207.504C344.459 208.296 342.892 208.722 341.293 208.744V208.744ZM362.294 164.009C350.775 168.007 331.531 185.145 330.614 197.185C330.287 201.446 332.324 204.7 336.645 206.823C337.998 207.57 339.52 207.962 341.067 207.962C342.615 207.962 344.137 207.57 345.49 206.823C357.195 200.563 361.703 168.72 362.309 164.009H362.294Z" fill="#161618"/>
<path d="M327.069 229.012C316.499 192.366 296.943 173.756 296.757 173.585C297.456 173.213 317.152 191.978 327.442 228.531C327.147 229.012 327.116 229.012 327.069 229.012Z" fill="#161618"/>
<path d="M331.826 229.012C331.453 228.624 332.354 204.529 332.354 204.529C333.1 204.529 332.199 228.655 332.199 228.655C332.199 228.703 332.189 228.751 332.17 228.795C332.151 228.84 332.123 228.88 332.089 228.913C332.054 228.946 332.013 228.972 331.967 228.989C331.922 229.006 331.874 229.014 331.826 229.012Z" fill="#161618"/>
<path d="M332.292 190.212C331.919 189.84 331.453 173.957 331.453 173.957C332.199 173.957 332.665 189.824 332.665 189.824C332.308 190.212 332.308 190.212 332.292 190.212Z" fill="#161618"/>
<path d="M338.045 229.12C331.469 190.382 354.709 171.339 354.942 171.137C355.19 171.912 332.277 190.754 338.418 228.686C338.091 229.12 338.06 229.12 338.045 229.12Z" fill="#161618"/>
<path d="M396.601 119.569C395.855 119.414 395.529 119.182 395.342 118.841L388.425 107.158C387.445 106.91 382.689 109.699 382.689 109.699C382.468 109.824 382.219 109.889 381.966 109.889C381.712 109.889 381.463 109.824 381.243 109.699C381.026 109.571 380.843 109.393 380.711 109.18C380.578 108.967 380.499 108.725 380.481 108.475L379.471 87.8815C379.456 87.6154 379.515 87.3505 379.641 87.1155C379.768 86.8806 379.956 86.6846 380.186 86.5489C380.422 86.4129 380.69 86.3413 380.963 86.3413C381.236 86.3413 381.504 86.4129 381.74 86.5489L399.321 97.3956C399.537 97.5267 399.715 97.7112 399.837 97.9312C399.96 98.1512 400.023 98.3991 400.021 98.6507C400.011 98.8994 399.94 99.1419 399.816 99.3576C399.691 99.5734 399.516 99.7561 399.306 99.8903L394.985 102.432C394.822 102.528 394.704 102.685 394.658 102.868C394.611 103.051 394.639 103.245 394.736 103.408L401.653 115.091C401.829 115.429 401.874 115.819 401.779 116.188C401.684 116.557 401.457 116.878 401.14 117.09L397.363 119.306C397.137 119.459 396.874 119.55 396.601 119.569ZM387.803 106.057C388.055 106.065 388.301 106.135 388.521 106.259C388.74 106.383 388.926 106.558 389.062 106.77L395.979 118.469C396.959 118.717 400.643 116.501 400.643 116.501C400.806 116.404 400.923 116.247 400.97 116.064C401.016 115.881 400.988 115.687 400.891 115.525L393.974 103.842C393.876 103.676 393.813 103.493 393.786 103.302C393.76 103.112 393.772 102.918 393.821 102.732C393.87 102.547 393.956 102.372 394.073 102.22C394.19 102.067 394.336 101.939 394.503 101.843L398.809 99.317C398.914 99.2544 399.003 99.1662 399.065 99.0605C399.128 98.9549 399.162 98.8352 399.166 98.7126C399.168 98.5886 399.138 98.4662 399.078 98.3575C399.018 98.2488 398.93 98.1575 398.824 98.0928L381.227 87.2462C381.119 87.1736 380.992 87.1348 380.862 87.1348C380.732 87.1348 380.605 87.1736 380.497 87.2462C380.382 87.3101 380.287 87.4052 380.224 87.5203C380.161 87.6354 380.131 87.766 380.139 87.897L381.15 108.49C381.156 108.612 381.194 108.73 381.259 108.833C381.324 108.936 381.415 109.021 381.523 109.079C381.632 109.14 381.755 109.172 381.88 109.172C382.005 109.172 382.129 109.14 382.238 109.079L386.901 106.274C387.168 106.101 387.485 106.019 387.803 106.042V106.057Z" fill="#161618"/>
<path d="M489.653 72.3863H440.345C440.345 71.6426 489.653 71.6425 489.653 71.6425C490.026 72.2159 489.87 72.3863 489.653 72.3863Z" fill="#161618"/>
<path d="M489.653 80.6764H440.345C440.345 79.9327 489.653 79.9326 489.653 79.9326C490.026 80.506 489.87 80.6764 489.653 80.6764Z" fill="#161618"/>
<path d="M423.183 82.0088C422.04 82.0058 420.923 81.6651 419.975 81.0299C419.026 80.3946 418.287 79.4933 417.852 78.4398C417.416 77.3863 417.304 76.2277 417.529 75.1106C417.754 73.9935 418.306 72.9679 419.115 72.1633C419.925 71.3587 420.955 70.8112 422.076 70.5901C423.197 70.3689 424.359 70.484 425.415 70.9207C426.471 71.3574 427.373 72.0962 428.008 73.0438C428.643 73.9914 428.981 75.1052 428.981 76.2446C428.981 77.0029 428.831 77.7537 428.54 78.4541C428.248 79.1544 427.821 79.7906 427.282 80.3261C426.743 80.8615 426.104 81.2858 425.401 81.5745C424.697 81.8633 423.944 82.0109 423.183 82.0088V82.0088ZM423.183 71.1622C422.188 71.1653 421.215 71.4623 420.389 72.0158C419.563 72.5693 418.92 73.3545 418.541 74.2721C418.162 75.1897 418.065 76.1987 418.261 77.1715C418.457 78.1444 418.938 79.0375 419.643 79.7381C420.348 80.4387 421.245 80.9153 422.222 81.1077C423.198 81.3002 424.21 81.1999 425.13 80.8195C426.049 80.439 426.835 79.7955 427.387 78.9702C427.94 78.145 428.235 77.175 428.235 76.1827C428.215 74.8605 427.673 73.5994 426.728 72.6717C425.783 71.744 424.51 71.224 423.183 71.2242V71.1622Z" fill="#161618"/>
<path d="M489.653 94.6994H440.345C440.345 93.9556 489.653 93.9556 489.653 93.9556C490.026 94.5289 489.87 94.6994 489.653 94.6994Z" fill="#161618"/>
<path d="M489.653 102.943H440.345C440.345 102.199 489.653 102.199 489.653 102.199C490.026 102.819 489.87 102.943 489.653 102.943Z" fill="#161618"/>
<path d="M423.183 104.337C422.04 104.334 420.923 103.994 419.975 103.358C419.026 102.723 418.287 101.822 417.852 100.768C417.416 99.7147 417.304 98.5561 417.529 97.439C417.754 96.3219 418.306 95.2963 419.115 94.4917C419.925 93.6871 420.955 93.1396 422.076 92.9185C423.197 92.6973 424.359 92.8124 425.415 93.2491C426.471 93.6858 427.373 94.4246 428.008 95.3722C428.643 96.3198 428.981 97.4336 428.981 98.573C428.977 100.103 428.364 101.569 427.278 102.65C426.191 103.73 424.718 104.337 423.183 104.337ZM423.183 93.4906C422.188 93.4937 421.215 93.7907 420.389 94.3442C419.563 94.8977 418.92 95.6829 418.541 96.6005C418.162 97.5181 418.065 98.5271 418.261 99.4999C418.457 100.473 418.938 101.366 419.643 102.066C420.348 102.767 421.245 103.244 422.222 103.436C423.198 103.629 424.21 103.528 425.13 103.148C426.049 102.767 426.835 102.124 427.387 101.299C427.94 100.473 428.235 99.5034 428.235 98.5111C428.215 97.1889 427.673 95.9278 426.728 95.0001C425.783 94.0723 424.51 93.5524 423.183 93.5526V93.4906Z" fill="#161618"/>
<path d="M489.653 116.888H440.345C440.345 116.145 489.653 116.145 489.653 116.145C490.026 116.702 489.87 116.888 489.653 116.888Z" fill="#161618"/>
<path d="M489.653 125.163H440.345C440.345 124.419 489.653 124.419 489.653 124.419C490.026 124.992 489.87 125.163 489.653 125.163Z" fill="#161618"/>
<path d="M423.183 126.511C422.036 126.511 420.915 126.172 419.962 125.537C419.008 124.902 418.265 123.999 417.826 122.943C417.387 121.887 417.272 120.725 417.496 119.604C417.72 118.483 418.272 117.453 419.083 116.644C419.894 115.836 420.927 115.286 422.052 115.063C423.176 114.84 424.342 114.954 425.402 115.392C426.461 115.829 427.367 116.57 428.004 117.52C428.641 118.471 428.981 119.588 428.981 120.731C428.981 122.264 428.37 123.734 427.283 124.818C426.195 125.902 424.721 126.511 423.183 126.511ZM423.183 115.664C422.183 115.664 421.206 115.96 420.375 116.514C419.543 117.068 418.896 117.856 418.514 118.777C418.132 119.698 418.033 120.711 418.229 121.688C418.425 122.666 418.908 123.563 419.616 124.267C420.324 124.97 421.226 125.449 422.207 125.641C423.188 125.834 424.204 125.732 425.127 125.348C426.05 124.965 426.838 124.317 427.391 123.487C427.944 122.657 428.238 121.682 428.235 120.685C428.219 119.36 427.679 118.095 426.734 117.164C425.788 116.233 424.512 115.711 423.183 115.711V115.664Z" fill="#161618"/>
<path d="M390.648 154.17H351.786C351.786 153.426 390.275 153.426 390.275 153.426V139.589C391.021 139.589 391.021 153.798 391.021 153.798C391.021 153.897 390.982 153.991 390.912 154.061C390.842 154.131 390.747 154.17 390.648 154.17V154.17Z" fill="#161618"/>
<path d="M340.733 150.064C340.36 149.692 340.36 121.01 340.36 121.01C340.733 120.638 386.793 120.638 386.793 120.638C386.793 121.382 341.106 121.382 341.106 121.382V149.692C341.106 149.741 341.097 149.789 341.078 149.834C341.059 149.879 341.032 149.92 340.997 149.955C340.963 149.989 340.921 150.017 340.876 150.035C340.831 150.054 340.782 150.064 340.733 150.064V150.064Z" fill="#161618"/>
<path d="M361.778 385.032C363.006 384.326 363.68 385.231 365.063 386.778C363.829 386.579 362.692 385.992 361.817 385.101L361.778 385.032ZM369.658 393.377C372.35 394.333 374.838 395.786 376.992 397.662C374.236 397.044 371.732 395.605 369.811 393.535L369.658 393.377ZM382.662 403.181C385.493 403.693 388.217 404.678 390.72 406.096C387.922 405.997 385.223 405.044 382.984 403.365C382.858 403.347 382.742 403.281 382.662 403.181V403.181ZM397.265 410.187C400.165 410.194 403.05 410.61 405.835 411.421C403.07 411.974 400.202 411.64 397.64 410.465C397.5 410.431 397.377 410.349 397.291 410.234L397.265 410.187ZM413.053 413.894C415.929 413.357 418.859 413.161 421.781 413.312C419.217 414.463 416.359 414.793 413.6 414.257C413.496 414.244 413.396 414.209 413.306 414.154C413.216 414.1 413.139 414.027 413.079 413.941L413.053 413.894ZM429.233 413.833C431.979 412.78 434.82 411.993 437.716 411.482C435.472 413.126 432.786 414.058 430.006 414.159C429.885 414.191 429.756 414.19 429.635 414.157C429.513 414.125 429.403 414.061 429.313 413.972L429.233 413.833ZM445.088 410.417C445.042 410.325 445.016 410.224 445.012 410.122C445.008 410.019 445.026 409.917 445.065 409.822C445.104 409.726 445.162 409.641 445.237 409.57C445.311 409.499 445.4 409.445 445.497 409.412C448.08 408.543 450.624 407.604 453.114 406.573C451.193 408.616 448.709 410.044 445.977 410.676C445.848 410.748 445.698 410.776 445.552 410.754C445.406 410.732 445.271 410.662 445.168 410.556L445.088 410.417ZM460.029 404.23C459.981 404.146 459.95 404.053 459.938 403.957C459.926 403.86 459.934 403.763 459.961 403.67C459.988 403.576 460.034 403.49 460.095 403.414C460.157 403.339 460.233 403.277 460.318 403.232C461.894 402.326 463.606 401.496 465.274 400.537C465.969 400.138 466.688 399.725 467.383 399.325C467.454 399.831 467.357 400.346 467.105 400.791C466.854 401.237 466.463 401.587 465.993 401.787C464.301 402.76 462.633 403.719 460.968 404.522C460.831 404.584 460.678 404.6 460.532 404.568C460.385 404.535 460.253 404.456 460.155 404.342L460.029 404.23ZM473.957 395.854C476.076 393.794 478.338 391.886 480.726 390.145C479.387 392.643 477.376 394.717 474.919 396.132C474.11 396.012 474.097 395.989 474.084 395.966L473.957 395.854ZM486.768 385.963C488.996 383.296 490.948 381.435 492.736 379.452C491.762 382.076 490.043 384.36 487.789 386.023C487.064 386.101 487.037 386.055 487.011 386.009L486.768 385.963ZM498.141 374.374C499.924 371.469 501.444 369.394 503.036 367.123C502.554 369.885 501.25 372.439 499.295 374.45C498.48 374.641 498.376 374.515 498.336 374.445L498.141 374.374ZM507.202 360.909C508.507 357.817 509.576 355.386 510.518 352.842C510.657 355.652 509.905 358.435 508.369 360.793C507.554 361.2 507.464 361.097 507.398 360.981L507.202 360.909ZM513.177 345.83C513.823 342.718 514.364 340.066 514.763 337.434C515.517 340.143 515.416 343.02 514.473 345.671C513.629 346.187 513.397 346.105 513.303 345.943L513.177 345.83ZM515.601 329.775C515.567 326.714 515.545 324.048 515.377 321.341C516.701 323.82 517.247 326.639 516.946 329.434C516.129 330.211 515.916 330.056 515.796 329.848L515.601 329.775ZM514.484 313.568C513.987 310.774 513.351 308.059 512.6 305.411C514.398 307.571 515.496 310.228 515.745 313.028C515.098 314.047 514.826 313.895 514.68 313.641L514.484 313.568ZM510.167 297.908C509.214 295.397 508.105 292.948 506.846 290.576C508.074 289.87 509.698 292.695 511.492 297.423C510.891 298.416 510.545 298.244 510.386 297.967L510.167 297.908Z" fill="#1F64B1"/>
<path d="M12.9097 175.377C11.6224 172.724 10.5506 169.971 9.70499 167.145C11.5756 169.222 12.9058 171.728 13.5773 174.442C13.0699 175.351 12.9898 175.377 12.9097 175.377ZM8.07606 159.822C6.88783 157.11 5.9926 154.279 5.40563 151.376C7.08254 153.609 8.2246 156.196 8.74367 158.94C8.20959 159.822 8.12947 159.822 8.07606 159.822V159.822ZM4.6311 143.786C3.97476 142.525 3.58412 141.142 3.48299 139.723C3.29606 138.173 3.13575 136.596 3.05563 135.046C3.64131 135.686 4.09419 136.436 4.38759 137.253C4.68099 138.07 4.8091 138.937 4.76475 139.804C4.76475 140.953 5.05862 142.102 5.21884 143.225C4.76487 143.92 4.76475 143.92 4.76475 143.92L4.6311 143.786ZM3.69651 127.563C3.60194 127.567 3.50764 127.551 3.41975 127.516C3.33186 127.48 3.25234 127.427 3.18668 127.359C3.12102 127.29 3.07082 127.209 3.03901 127.12C3.00719 127.031 2.99451 126.936 3.00217 126.841C3.11524 124.101 3.39184 121.37 3.83016 118.663C4.55094 121.344 4.75031 124.138 4.41758 126.895C4.4289 126.996 4.41872 127.098 4.38759 127.195C4.35646 127.292 4.3051 127.382 4.23699 127.457C4.16887 127.533 4.08564 127.594 3.9925 127.635C3.89936 127.676 3.79833 127.697 3.69651 127.696V127.563ZM6.36695 111.527C5.77945 111.393 5.56579 111.019 5.67261 110.645C6.40619 108.001 7.29795 105.404 8.34304 102.867C8.41435 105.601 7.96109 108.322 7.00783 110.885C7.02008 110.988 7.00938 111.091 6.97653 111.189C6.94368 111.287 6.8897 111.376 6.8181 111.451C6.74651 111.525 6.65935 111.582 6.56286 111.618C6.46637 111.654 6.36306 111.669 6.26035 111.66L6.36695 111.527ZM12.6157 96.5595C13.271 93.6185 14.6066 90.8723 16.5147 88.5414C15.9061 91.2474 14.7917 93.8138 13.2301 96.1052C13.194 96.2703 13.1029 96.4181 12.972 96.5249C12.8411 96.6317 12.6779 96.691 12.5091 96.6931L12.6157 96.5595ZM111.796 94.9292C113.922 93.2095 115.546 90.9472 116.496 88.3811C116.712 89.8385 116.366 91.3236 115.528 92.5348C114.689 93.746 113.422 94.5925 111.983 94.9024L111.796 94.9292ZM104.666 92.2565C102.598 90.0566 101.304 87.2414 100.981 84.2384C102.716 86.9111 103.651 89.3699 105.227 91.1874C104.879 92.203 104.719 92.2565 104.559 92.2565H104.666ZM22.2562 83.6771C23.516 80.9947 25.4365 78.677 27.8374 76.9418C26.5819 79.4227 24.859 81.6371 22.7635 83.4632C22.6292 83.5989 22.447 83.6758 22.2562 83.6771V83.6771ZM116.336 81.4855C114.766 79.1098 112.869 76.9683 110.701 75.1244C112.069 75.5061 113.337 76.1823 114.416 77.1056C115.495 78.0289 116.36 79.1771 116.95 80.4698C116.549 81.5122 116.442 81.539 116.336 81.539V81.4855ZM101.862 76.6211C101.761 76.6223 101.661 76.6015 101.569 76.5601C101.477 76.5187 101.395 76.4578 101.329 76.3815C101.263 76.3052 101.214 76.2153 101.186 76.1182C101.158 76.0211 101.152 75.9192 101.167 75.8194C101.486 73.7567 101.986 71.7264 102.663 69.7523C100.798 68.76 98.8814 67.8679 96.9215 67.0796C99.0963 66.7442 101.318 67.2404 103.143 68.4694C103.266 71.032 103.069 73.5998 102.556 76.1133C102.525 76.2736 102.438 76.4178 102.311 76.5205C102.184 76.6231 102.025 76.6777 101.862 76.6746V76.6211ZM275.921 74.4295C274.834 73.0137 273.835 71.5321 272.93 69.9929C273.738 70.2684 274.478 70.7139 275.1 71.2994C275.722 71.8849 276.211 72.5968 276.535 73.3873C276.161 74.4564 276.054 74.483 275.921 74.483V74.4295ZM34.8873 73.4674C34.9885 72.854 35.2384 72.2748 35.6156 71.7808C35.9928 71.2868 36.4854 70.8931 37.0502 70.6343C38.5724 69.7523 40.1212 68.9238 41.67 68.1755C40.8259 69.8214 39.439 71.1245 37.7446 71.8638C36.89 72.3449 36.0624 72.8527 35.2612 73.3605C35.1584 73.4549 35.0265 73.5115 34.8873 73.5209V73.4674ZM49.4945 66.3848C51.6226 64.4306 54.2792 63.1476 57.1319 62.6965C54.921 64.3861 52.3979 65.6214 49.7081 66.3313L49.4945 66.3848ZM89.5511 64.4337C86.914 63.7507 84.2389 63.2243 81.5398 62.8569C84.241 62.0454 87.1295 62.111 89.7913 63.044C90.2186 64.2734 89.7914 64.4872 89.4976 64.4872L89.5511 64.4337ZM269.004 63.6051C266.841 61.1462 265.132 59.0349 263.37 57.0304C265.91 58.1711 268.064 60.0288 269.565 62.3758C269.138 63.6052 269.138 63.6586 268.951 63.6586L269.004 63.6051ZM65.3568 62.7231C67.6487 61.3516 70.3028 60.7085 72.9678 60.8789C70.6227 62.0379 68.0518 62.6675 65.437 62.7231H65.3568ZM107.71 61.5471C108.435 58.6522 109.877 55.9867 111.903 53.7964C111.155 56.4609 109.934 58.9688 108.298 61.1998C108.238 61.3194 108.147 61.4202 108.034 61.491C107.921 61.5618 107.79 61.5997 107.657 61.6006L107.71 61.5471ZM258.296 51.3642C255.866 49.2795 253.863 47.4621 251.807 45.7515C254.511 46.509 256.941 48.0309 258.803 50.1348C258.616 51.3375 258.456 51.4176 258.243 51.4176L258.296 51.3642ZM118.045 49.039C119.378 46.4076 121.352 44.1553 123.786 42.4908C122.451 44.9488 120.634 47.1122 118.445 48.8519C118.33 48.9872 118.168 49.0733 117.991 49.0924L118.045 49.039ZM245.772 41.0209C243.101 39.3638 240.912 37.8938 238.588 36.5307C241.376 36.8333 244.013 37.9486 246.172 39.738C246.172 40.914 245.958 40.914 245.718 40.914L245.772 41.0209ZM130.943 39.1232C132.671 36.7958 134.971 34.9545 137.619 33.7778C135.917 35.983 133.769 37.8044 131.317 39.1232C131.151 39.173 130.975 39.173 130.809 39.1232H130.943ZM231.752 32.8959C229.081 31.6664 226.411 30.5706 224.034 29.6084C226.839 29.4486 229.628 30.1278 232.045 31.5595C232.232 32.6553 231.965 32.8959 231.752 32.8959ZM145.149 31.5061C147.163 29.4239 149.686 27.9037 152.467 27.0961C150.466 29.0365 148.07 30.5224 145.443 31.4526C145.334 31.4653 145.223 31.4468 145.123 31.3992L145.149 31.5061ZM216.61 26.9892C213.94 26.1874 211.269 25.5192 208.599 24.9312C211.338 24.3511 214.188 24.5833 216.797 25.5994C217.171 26.6952 216.877 26.8823 216.584 26.8823L216.61 26.9892ZM160.531 26.0004C162.766 24.2036 165.457 23.0652 168.302 22.7129C166.04 24.3365 163.452 25.449 160.718 25.9736L160.531 26.0004ZM200.802 23.5147C198.131 23.1405 195.461 22.8465 192.79 22.6862C195.418 21.7022 198.274 21.498 201.015 22.0982C201.362 23.1673 201.042 23.4078 200.695 23.4078L200.802 23.5147ZM176.501 22.9C178.929 21.5008 181.716 20.8499 184.512 21.0291C181.998 22.1957 179.271 22.8326 176.501 22.9V22.9Z" fill="#1F64B1"/>
<path d="M13.5026 194C10.7363 194 8.8922 196.279 8.56288 197.419C6.75161 197.419 3.00403 195.887 1.15301 198.395C-0.438883 200.552 -0.328759 202.791 1.15301 205.721C2.27066 207.931 10.374 212.884 14.4905 215C16.9606 210.116 19.4305 205.721 18.9364 198.884C18.732 196.056 16.9605 194 13.5026 194Z" fill="#FF6666"/>
<path d="M501.292 368.967C499.059 367.335 496.225 368.087 495.287 368.812C493.825 367.744 491.702 364.296 488.728 365.229C486.17 366.031 484.938 367.904 484.406 371.144C484.004 373.588 487.625 382.367 489.7 386.505C494.575 384.019 499.163 381.928 502.798 376.116C504.302 373.712 504.084 371.007 501.292 368.967Z" fill="#FF6666"/>
<defs>
<clipPath id="clip0_1478_8003">
<rect width="168" height="109" fill="white" transform="translate(303 270)"/>
</clipPath>
<clipPath id="clip1_1478_8003">
<rect width="232" height="246" fill="white" transform="translate(6 176)"/>
</clipPath>
</defs>
</svg>
