<svg width="25" height="28" viewBox="0 0 25 28" fill="none" xmlns="http://www.w3.org/2000/svg">
<path fill-rule="evenodd" clip-rule="evenodd" d="M21.4824 0.603471C21.8978 0.826901 22.0506 1.33953 21.8236 1.74846L18.3811 7.95068C22.0051 9.72494 24.5 13.0951 24.5 17.055C24.5 22.9257 19.0167 27.5 12.5 27.5C5.98335 27.5 0.5 22.9257 0.5 17.055C0.5 11.1844 5.98335 6.61004 12.5 6.61004C14.0028 6.61004 15.4506 6.8533 16.7889 7.29963L20.3192 0.939349C20.5462 0.530419 21.067 0.380042 21.4824 0.603471ZM15.9553 8.8015C14.8809 8.47581 13.7192 8.29753 12.5 8.29753C6.70859 8.29753 2.21429 12.3204 2.21429 17.055C2.21429 21.7896 6.70859 25.8125 12.5 25.8125C18.2914 25.8125 22.7857 21.7896 22.7857 17.055C22.7857 13.8372 20.7097 10.9481 17.5615 9.42726L9.88189 23.263L6.58541 16.5494C6.37941 16.1298 6.55793 15.6253 6.98414 15.4225C7.41035 15.2197 7.92287 15.3955 8.12887 15.815L9.97525 19.5754L15.9553 8.8015Z" fill="#1F64B1"/>
</svg>
