<svg width="46" height="70" viewBox="0 0 46 70" fill="none" xmlns="http://www.w3.org/2000/svg">
<path d="M1.5 43L10 44L11 47.4667V63.9333L10 68.5L1.5 68V43Z" fill="#1F64B1"/>
<path d="M44.5124 47.8992C46.6367 50.63 46.5298 51.799 43.9078 54.8428C44.9604 55.9492 45.1501 57.2865 44.8115 58.7478C44.5264 59.9807 43.9409 61.0323 42.8577 61.6742C42.2633 62.0265 42.248 62.4088 42.3218 63.0363C42.6006 65.3848 42.1767 66.5473 40.3298 67.5806C39.381 68.1061 38.376 68.5172 37.3349 68.8057C33.7391 69.8077 30.0555 70.0308 26.3579 69.7503C22.6387 69.4685 18.9284 69.0601 15.218 68.6831C14.1654 68.5761 13.1229 68.3674 12.0716 68.2473C11.9568 68.2404 11.8418 68.2578 11.7339 68.2984C11.6259 68.3391 11.5273 68.4021 11.4441 68.4835C10.5595 69.5037 9.48263 70.0178 8.1347 69.9995C6.24708 69.9747 4.35947 69.9995 2.47185 69.9917C0.966084 69.9917 0.00509135 69.0158 0.00381851 67.471C-0.00127284 59.7681 -0.00127284 52.0651 0.00381851 44.3622C0.00381851 42.8552 0.954628 41.8754 2.43112 41.8624C4.40274 41.8454 6.37691 41.8493 8.34854 41.8624C8.89201 41.853 9.43097 41.9649 9.9281 42.1901C10.4252 42.4154 10.8687 42.7488 11.2277 43.1671C11.5103 43.4906 11.7597 43.4998 12.1187 43.3693C13.0854 43.0238 13.938 42.4067 14.5791 41.5884C15.018 41.0588 15.4163 40.4952 15.7704 39.9027C17.1918 37.4061 18.8235 35.0417 20.6467 32.8364C22.9607 30.0196 24.2106 26.7683 24.5861 23.1334C24.6256 22.742 24.6829 22.3597 24.749 21.9761C24.9858 20.6166 25.5917 20.0791 26.946 20.0125C30.4386 19.8403 32.409 21.4373 33.0963 25.1009C33.7582 28.6327 33.4782 32.0158 31.3602 35.0544C30.5965 36.1399 30.2286 37.369 30.1459 38.6998C30.1141 39.2021 30.2732 39.4187 30.7823 39.3834C32.4752 39.2686 34.1706 39.069 35.8609 39.1003C38.0188 39.1196 40.1737 39.2699 42.3142 39.5504C44.282 39.8257 45.299 41.0274 45.6172 43.0562C45.7341 43.8263 45.7767 44.6064 45.7445 45.3851C45.7025 46.3766 45.2124 47.196 44.5124 47.8992ZM27.9324 39.7044C27.8357 37.3116 28.4861 35.3141 29.7055 33.4862C31.5574 30.7098 31.5091 27.6868 30.6754 24.6142C30.1841 22.8085 29.2752 22.2358 27.4284 22.2449C27.0707 22.2449 26.8607 22.3401 26.8467 22.7394C26.839 22.9325 26.7818 23.1243 26.7627 23.3173C26.3605 27.4454 24.9349 31.1364 22.2925 34.3121C21.973 34.6877 21.6723 35.0796 21.3913 35.4863C19.9403 37.6469 18.5058 39.8205 17.0547 41.9811C15.9868 43.5715 14.6694 44.8658 12.8315 45.4738C12.4153 45.6121 12.2829 45.7999 12.2841 46.2462C12.2977 52.6035 12.2977 58.9609 12.2841 65.3183C12.2841 65.8401 12.4483 66.0345 12.9473 66.1011C14.9673 66.3477 16.9796 66.6465 18.9996 66.8917C22.9187 67.3693 26.8467 67.7189 30.7988 67.5271C33.3445 67.3967 35.8749 67.124 38.2691 66.1441C40.1924 65.3613 40.4406 64.8394 40.0511 62.7715C39.8487 61.7108 40.1275 60.8405 41.0464 60.2339C41.3178 60.0643 41.5808 59.881 41.8343 59.6846C42.8742 58.8365 43.027 57.2487 42.1755 56.2441C41.2221 55.1194 41.3226 54.1148 42.4987 53.0371C44.2082 51.4715 44.2298 50.9418 42.6489 49.2535C41.7669 48.3115 41.758 47.3043 42.7393 46.5006C43.9612 45.5051 43.6303 44.263 43.3872 43.0392C43.1683 41.938 42.2416 41.7449 41.3443 41.5975C37.4914 40.9647 33.6436 41.467 29.7971 41.6849C28.0393 41.788 26.2904 42.0411 24.5416 41.634C23.6722 41.4318 23.2916 40.9295 23.4635 40.1923C23.6111 39.5583 24.1801 39.3247 24.9909 39.4382C25.9417 39.5726 26.9065 39.617 27.9324 39.7044ZM10.0923 55.9453C10.0923 52.6714 10.0923 49.3974 10.0923 46.1235C10.0923 44.8293 9.39099 44.0986 8.13725 44.0908C6.37691 44.0791 4.61785 44.1025 2.85879 44.0751C2.33438 44.0673 2.16891 44.2408 2.16891 44.7797C2.18504 52.2165 2.18716 59.6533 2.17528 67.09C2.17528 67.5937 2.30256 67.775 2.82061 67.7672C4.55803 67.7398 6.29672 67.7607 8.03924 67.7554C9.43172 67.7554 10.0974 67.0666 10.0987 65.6366C10.097 62.407 10.0949 59.1766 10.0923 55.9453Z" fill="#161618"/>
<path d="M35.4161 14.2316C36.1048 13.1075 37.5719 10.6736 37.9303 9.93066M28.747 10.4575C28.8916 9.39831 29.3565 3.83901 29.0563 2.2743M21.4126 13.0196C21.0132 12.0252 19.0442 10.3268 18.9635 9.03597" stroke="#161618" stroke-width="2" stroke-linecap="round" stroke-linejoin="round"/>
</svg>
