<svg width="64" height="64" viewBox="0 0 64 64" fill="none" xmlns="http://www.w3.org/2000/svg">
<path d="M41.3135 49.0155L40.0809 59.9648L30.2201 58.7482L30.2201 53.8819C35.7668 55.7068 41.3135 49.0155 41.3135 49.0155Z" fill="#1F64B1"/>
<path d="M24.0928 49.0155L22.8602 59.9648L12.9994 58.7482L12.9994 53.8819C18.5461 55.7068 24.0928 49.0155 24.0928 49.0155Z" fill="#1F64B1"/>
<path d="M58.7588 36.6761L57.5262 59.8508L47.6655 58.6342L47.6655 41.5425C53.2121 43.3674 58.7588 36.6761 58.7588 36.6761Z" fill="#1F64B1"/>
<path d="M3.19276 31.4665C2.65083 31.3601 2.12521 31.7131 2.01875 32.255C1.9123 32.7969 2.26532 33.3226 2.80724 33.429L3.19276 31.4665ZM60.5622 2L61.5614 1.96034C61.5434 1.5075 61.2232 1.12336 60.7809 1.02422C60.3387 0.925081 59.8851 1.13573 59.6755 1.53755L60.5622 2ZM52.7119 7.48011C52.1912 7.66427 51.9184 8.23565 52.1025 8.75632C52.2867 9.277 52.8581 9.5498 53.3788 9.36564L52.7119 7.48011ZM61.1534 8.2973C61.4473 8.76489 62.0646 8.90568 62.5322 8.61178C62.9997 8.31788 63.1405 7.70056 62.8466 7.23298L61.1534 8.2973ZM42.5634 38.9154L43.5619 38.971C43.5885 38.4919 43.2711 38.0614 42.8055 37.9452L42.5634 38.9154ZM30.9997 36.0299L31.2418 35.0596C30.9431 34.9851 30.6268 35.0523 30.3842 35.2418C30.1415 35.4313 29.9997 35.722 29.9997 36.0299H30.9997ZM30.9997 62H29.9997C29.9997 62.5523 30.4475 63 30.9997 63V62ZM41.2786 62V63C41.8093 63 42.2475 62.5854 42.277 62.0556L41.2786 62ZM24.7731 44.4876L25.7705 44.5607C25.8076 44.0538 25.4586 43.5996 24.9591 43.505L24.7731 44.4876ZM13.2094 42.2985L13.3954 41.316C13.1028 41.2606 12.8008 41.3385 12.5715 41.5284C12.3422 41.7184 12.2094 42.0007 12.2094 42.2985H13.2094ZM13.2094 62H12.2094C12.2094 62.5523 12.6572 63 13.2094 63V62ZM23.4883 62V63C24.0122 63 24.4473 62.5957 24.4856 62.0732L23.4883 62ZM60.3537 31.7512L61.3528 31.7937C61.3718 31.3459 61.0905 30.9401 60.6645 30.8008L60.3537 31.7512ZM48.79 27.9701L49.1008 27.0197C48.7962 26.9201 48.4624 26.9725 48.203 27.1606C47.9436 27.3487 47.79 27.6497 47.79 27.9701H48.79ZM48.79 62H47.79C47.79 62.5523 48.2377 63 48.79 63V62ZM59.0689 62V63C59.6046 63 60.0452 62.5777 60.068 62.0424L59.0689 62ZM2.80724 33.429C21.3312 37.0678 49.3626 32.0865 61.488 2.37788L59.6363 1.62212C47.9951 30.1443 21.1389 34.9919 3.19276 31.4665L2.80724 33.429ZM59.6755 1.53755C58.9501 2.92838 56.4904 6.14367 52.7119 7.48011L53.3788 9.36564C57.7754 7.81057 60.5693 4.14874 61.4488 2.46245L59.6755 1.53755ZM59.563 2.03966C59.5896 2.70973 59.6971 3.79524 59.9332 4.93375C60.1656 6.05427 60.5421 7.32482 61.1534 8.2973L62.8466 7.23298C62.4255 6.56302 62.1077 5.56967 61.8915 4.52758C61.6791 3.50347 61.5839 2.52763 61.5614 1.96034L59.563 2.03966ZM42.8055 37.9452L31.2418 35.0596L30.7576 37.0001L42.3213 39.8857L42.8055 37.9452ZM29.9997 36.0299V62H31.9997V36.0299H29.9997ZM30.9997 63H41.2786V61H30.9997V63ZM42.277 62.0556L43.5619 38.971L41.565 38.8599L40.2801 61.9444L42.277 62.0556ZM24.9591 43.505L13.3954 41.316L13.0234 43.2811L24.5871 45.4701L24.9591 43.505ZM12.2094 42.2985V62H14.2094V42.2985H12.2094ZM13.2094 63H23.4883V61H13.2094V63ZM24.4856 62.0732L25.7705 44.5607L23.7758 44.4144L22.491 61.9268L24.4856 62.0732ZM60.6645 30.8008L49.1008 27.0197L48.4792 28.9206L60.0429 32.7017L60.6645 30.8008ZM47.79 27.9701V62H49.79V27.9701H47.79ZM48.79 63H59.0689V61H48.79V63ZM60.068 62.0424L61.3528 31.7937L59.3546 31.7088L58.0698 61.9576L60.068 62.0424Z" fill="#161618"/>
</svg>
