<svg width="75" height="66" viewBox="0 0 75 66" fill="none" xmlns="http://www.w3.org/2000/svg">
<path d="M61 34.5L55 23C55 23 51.9022 17.5466 55 18.0001C58.2983 18.4828 64.1328 23.1325 67.5 28.5C69.9665 32.4317 70 38.5 70 38.5C70 38.5 70.5169 46.1723 67.5 51C65.1403 54.776 62.1289 56.4839 58.5 58.5C54 61 51.7733 61.9731 46.5 63C38.4479 64.568 32.5 64 25.5 62.5C23.6988 62.114 23 61.5 23 61.5L25 57.5L22 49.5L27 47.5C30 46.8334 29.8 46.3 35 45.5C41.5 44.5 35.5 46.5 40 42.5C44.5 38.5 61 34.5 61 34.5Z" fill="#1F64B1"/>
<path d="M24.5 26C23.7 26.4 22.1667 29.1667 21.5 30.5L20.5 32.5L28.5 37.5L36.5 29L33 24H29.5C27.5 24 25.5 25.5 24.5 26Z" fill="#1F64B1"/>
<path d="M27.3259 62.5363C26.7904 62.4011 26.2467 62.7257 26.1116 63.2611C25.9764 63.7966 26.3009 64.3403 26.8364 64.4755L27.3259 62.5363ZM52.9986 63.5059L52.6715 62.5609L52.9986 63.5059ZM71.9384 48.8858L72.8833 49.213L71.9384 48.8858ZM70.6093 27.2878L69.7377 27.7781L70.6093 27.2878ZM58.2487 18.3492C57.7163 18.2024 57.1657 18.5149 57.0188 19.0473C56.8719 19.5797 57.1845 20.1304 57.7169 20.2772L58.2487 18.3492ZM26.8364 64.4755C29.8889 65.246 34.719 65.8496 39.6446 65.9631C44.5525 66.0761 49.6975 65.7068 53.3258 64.4509L52.6715 62.5609C49.3885 63.6973 44.5341 64.0751 39.6907 63.9636C34.8651 63.8525 30.1921 63.2598 27.3259 62.5363L26.8364 64.4755ZM53.3258 64.4509C57.6997 62.9368 61.9274 60.9877 65.3854 58.5032C68.8426 56.0193 71.5857 52.9597 72.8833 49.213L70.9934 48.5585C69.8744 51.7896 67.4672 54.5448 64.2185 56.879C60.9706 59.2124 56.9368 61.0845 52.6715 62.5609L53.3258 64.4509ZM72.8833 49.213C75.6255 41.2953 74.6207 32.3795 71.4808 26.7976L69.7377 27.7781C72.5788 32.829 73.5607 41.1458 70.9934 48.5585L72.8833 49.213ZM71.4808 26.7976C70.2833 24.6686 67.7178 22.7842 65.2031 21.3569C62.6503 19.9079 59.9449 18.8172 58.2487 18.3492L57.7169 20.2772C59.2327 20.6954 61.7858 21.7169 64.2159 23.0962C66.6841 24.4972 68.8258 26.157 69.7377 27.7781L71.4808 26.7976Z" fill="#161618"/>
<path d="M24.3803 47.8464C23.9898 48.2369 23.9898 48.8701 24.3803 49.2606C24.7708 49.6512 25.404 49.6512 25.7945 49.2606L24.3803 47.8464ZM32.7297 45.563L32.5939 44.5723L32.7297 45.563ZM41.1264 47.53C41.6622 47.664 42.2051 47.3382 42.339 46.8024C42.473 46.2666 42.1472 45.7237 41.6114 45.5897L41.1264 47.53ZM25.7945 49.2606C26.1437 48.9114 27.1014 48.3336 28.4705 47.7732C29.7993 47.2293 31.3784 46.7577 32.8656 46.5538L32.5939 44.5723C30.9059 44.8038 29.1623 45.329 27.7129 45.9223C26.3038 46.499 25.0279 47.1988 24.3803 47.8464L25.7945 49.2606ZM32.8656 46.5538C35.9969 46.1244 39.7294 47.1808 41.1264 47.53L41.6114 45.5897C40.3502 45.2744 36.192 44.079 32.5939 44.5723L32.8656 46.5538Z" fill="#161618"/>
<path d="M35.4898 44.7365C35.0333 45.0474 34.9153 45.6695 35.2263 46.126C35.5372 46.5824 36.1592 46.7004 36.6157 46.3895L35.4898 44.7365ZM41.9064 40.9111L42.3329 41.8156L42.3329 41.8156L41.9064 40.9111ZM51.4011 40.58C51.9523 40.5448 52.3706 40.0695 52.3354 39.5183C52.3002 38.9671 51.8248 38.5489 51.2737 38.5841L51.4011 40.58ZM36.6157 46.3895C36.9398 46.1687 37.3237 45.8114 37.6987 45.4544C38.0998 45.0725 38.5375 44.6444 39.0337 44.1912C40.0283 43.2829 41.158 42.3696 42.3329 41.8156L41.48 40.0066C40.0253 40.6925 38.7159 41.7729 37.685 42.7144C37.1685 43.1861 36.6967 43.647 36.3197 44.0059C35.9165 44.3896 35.6535 44.625 35.4898 44.7365L36.6157 46.3895ZM42.3329 41.8156C43.8573 41.0969 45.6386 40.8048 47.3068 40.6888C48.135 40.6313 48.9186 40.618 49.6146 40.6126C50.2899 40.6073 50.9307 40.61 51.4011 40.58L51.2737 38.5841C50.8769 38.6094 50.3272 38.607 49.5991 38.6126C48.8916 38.6181 48.0589 38.6317 47.1681 38.6936C45.3984 38.8166 43.3313 39.1337 41.48 40.0066L42.3329 41.8156Z" fill="#161618"/>
<path d="M20.8508 30.2045C20.6265 30.7091 20.8538 31.3001 21.3585 31.5244C21.8631 31.7487 22.4541 31.5214 22.6784 31.0167L20.8508 30.2045ZM31.4006 24.6328C31.9529 24.6328 32.4006 24.1851 32.4006 23.6328C32.4006 23.0805 31.9529 22.6328 31.4006 22.6328V24.6328ZM22.6784 31.0167C23.0878 30.0955 24.3636 27.8487 26.0704 26.3857L24.7688 24.8672C22.7541 26.5941 21.3274 29.132 20.8508 30.2045L22.6784 31.0167ZM26.0704 26.3857C26.8466 25.7204 27.8815 25.2744 28.9111 24.9971C29.9361 24.7211 30.8787 24.6328 31.4006 24.6328V22.6328C30.7042 22.6328 29.5867 22.7439 28.391 23.066C27.1999 23.3867 25.8534 23.9376 24.7688 24.8672L26.0704 26.3857Z" fill="#161618"/>
<path d="M20.3578 44.8369C20.1403 44.3293 19.5524 44.0941 19.0448 44.3117C18.5371 44.5292 18.302 45.1171 18.5195 45.6247L20.3578 44.8369ZM24.4228 56.8605L23.5037 57.2544C23.5114 57.2724 23.5196 57.2902 23.5284 57.3077L24.4228 56.8605ZM19.1064 60.5155L20.055 60.1992C20.0471 60.1752 20.0382 60.1516 20.0284 60.1283L19.1064 60.5155ZM23.5653 44.4162C23.8494 44.8898 24.4637 45.0434 24.9373 44.7592C25.4109 44.4751 25.5644 43.8609 25.2803 43.3873L23.5653 44.4162ZM6.14764 46.8922L5.70043 45.9978L5.70041 45.9978L6.14764 46.8922ZM2.82489 41.5758L2.29312 40.7289L2.29306 40.7289L2.82489 41.5758ZM32.7297 40.9112L32.1407 41.7194C32.5841 42.0425 33.2051 41.9481 33.5323 41.5077C33.8596 41.0673 33.7709 40.4455 33.3336 40.1141L32.7297 40.9112ZM36.717 28.9493L37.4447 29.6352C37.7519 29.3093 37.8049 28.8188 37.5745 28.4348L36.717 28.9493ZM32.7297 16.9874L33.5434 17.5686L32.7297 16.9874ZM40.54 17.6415C41.0848 17.7323 41.6 17.3642 41.6908 16.8195C41.7816 16.2747 41.4136 15.7595 40.8688 15.6687L40.54 17.6415ZM18.5195 45.6247L23.5037 57.2544L25.342 56.4665L20.3578 44.8369L18.5195 45.6247ZM23.5284 57.3077C23.9593 58.1694 23.7297 59.5542 22.539 60.348L23.6484 62.0121C25.6476 60.6793 26.2156 58.2097 25.3172 56.4132L23.5284 57.3077ZM22.539 60.348C22.0023 60.7058 21.3784 60.7675 20.8515 60.6459C20.5884 60.5852 20.3765 60.4844 20.2326 60.38C20.0816 60.2704 20.0534 60.1942 20.055 60.1992L18.1577 60.8318C18.4821 61.8045 19.4864 62.3835 20.4017 62.5947C21.3866 62.822 22.5901 62.7176 23.6484 62.0121L22.539 60.348ZM20.0284 60.1283L13.0506 43.5145L11.2066 44.2889L18.1844 60.9027L20.0284 60.1283ZM12.6833 44.7338C13.6679 44.0774 15.2101 43.0932 16.6308 42.2767C17.3427 41.8675 18.0084 41.5096 18.5506 41.2569C18.8223 41.1303 19.0475 41.0375 19.2223 40.9782C19.4192 40.9114 19.475 40.9144 19.4387 40.9144V38.9144C19.1365 38.9144 18.8268 39.0005 18.5799 39.0842C18.3107 39.1755 18.0136 39.3007 17.7059 39.4441C17.0893 39.7314 16.3677 40.1211 15.6342 40.5426C14.1642 41.3875 12.583 42.3969 11.5739 43.0697L12.6833 44.7338ZM19.4387 40.9144C20.1771 40.9144 20.9403 41.3082 21.7 42.0165C22.45 42.7157 23.0902 43.6243 23.5653 44.4162L25.2803 43.3873C24.7587 42.5177 24.0067 41.4327 23.0638 40.5536C22.1306 39.6836 20.9 38.9144 19.4387 38.9144V40.9144ZM11.6814 43.0073L5.70043 45.9978L6.59486 47.7866L12.5758 44.7961L11.6814 43.0073ZM5.70041 45.9978C5.3452 46.1754 4.7848 46.1988 4.21937 45.9776C3.66354 45.7601 3.26012 45.3679 3.10902 44.9146L1.21165 45.547C1.59219 46.6887 2.51793 47.4595 3.49059 47.84C4.45366 48.2169 5.6211 48.2735 6.59488 47.7866L5.70041 45.9978ZM3.10902 44.9146C2.90606 44.3057 2.90639 43.6829 3.01952 43.1819C3.14581 42.6227 3.35672 42.4226 3.35672 42.4226L2.29306 40.7289C1.62861 41.1462 1.24143 41.9762 1.06864 42.7414C0.882695 43.5649 0.882971 44.561 1.21165 45.547L3.10902 44.9146ZM3.35666 42.4227C5.7292 40.9329 9.40287 38.6991 12.7099 36.8404C14.3651 35.9101 15.915 35.0815 17.1583 34.4881C17.781 34.1908 18.3115 33.96 18.7311 33.8057C18.9408 33.7286 19.1106 33.6751 19.2424 33.6419C19.383 33.6064 19.4405 33.6043 19.4387 33.6043V31.6043C19.0115 31.6043 18.5039 31.7583 18.0407 31.9286C17.5392 32.1131 16.9467 32.3729 16.2968 32.6831C14.9947 33.3046 13.4004 34.1581 11.73 35.0969C8.38604 36.9763 4.6832 39.2281 2.29312 40.7289L3.35666 42.4227ZM19.4387 33.6043C19.437 33.6043 19.4612 33.6045 19.5183 33.6157C19.5737 33.6266 19.6472 33.6453 19.7407 33.675C19.9292 33.7349 20.1671 33.8294 20.4539 33.9617C21.0275 34.2261 21.7365 34.6133 22.5381 35.0912C24.1384 36.0451 26.038 37.3186 27.8352 38.5814L28.985 36.9449C27.1708 35.6702 25.2247 34.3643 23.5622 33.3732C22.7325 32.8786 21.9558 32.4518 21.2914 32.1455C20.6784 31.8628 20.0022 31.6043 19.4387 31.6043V33.6043ZM27.8352 38.5814C29.4627 39.7248 30.9944 40.8512 32.1258 41.7083L33.3336 40.1141C32.1842 39.2434 30.6331 38.1029 28.985 36.9449L27.8352 38.5814ZM33.3187 40.1031L28.9991 36.955L27.8211 38.5713L32.1407 41.7194L33.3187 40.1031ZM35.9893 28.2634L27.6824 37.0773L29.1378 38.449L37.4447 29.6352L35.9893 28.2634ZM37.5745 28.4348C36.5768 26.772 35.1996 24.4189 34.2753 22.2087C33.8122 21.1012 33.4841 20.0787 33.3612 19.2275C33.2343 18.3485 33.3521 17.8365 33.5434 17.5686L31.9159 16.4062C31.2767 17.3012 31.2283 18.4506 31.3818 19.5133C31.5392 20.6039 31.9381 21.8035 32.4302 22.9803C33.4165 25.339 34.8636 27.8039 35.8595 29.4638L37.5745 28.4348ZM33.5434 17.5686C34.1609 16.7041 35.1543 16.4988 36.5449 16.6904C37.227 16.7844 37.9281 16.9656 38.6171 17.1566C39.27 17.3377 39.9739 17.5471 40.54 17.6415L40.8688 15.6687C40.4381 15.5969 39.8841 15.4325 39.1515 15.2294C38.4549 15.0362 37.6429 14.8228 36.8179 14.7091C35.1943 14.4854 33.1971 14.6124 31.9159 16.4062L33.5434 17.5686Z" fill="#161618"/>
<path d="M39.5792 21.4753C39.3052 20.9958 38.6943 20.8292 38.2148 21.1032C37.7353 21.3772 37.5687 21.9881 37.8427 22.4676L39.5792 21.4753ZM43.6951 27.9524L43.1989 28.8206L43.6951 27.9524ZM54.6602 31.6074L55.5546 32.0546L54.6602 31.6074ZM52.5017 25.404C52.1954 24.9445 51.5745 24.8203 51.115 25.1267C50.6555 25.433 50.5313 26.0539 50.8376 26.5134L52.5017 25.404ZM37.8427 22.4676C38.3054 23.2772 39.1114 24.546 40.0461 25.756C40.957 26.9351 42.0834 28.1832 43.1989 28.8206L44.1912 27.0842C43.446 26.6583 42.5234 25.6913 41.6289 24.5333C40.7582 23.4063 40.0026 22.2163 39.5792 21.4753L37.8427 22.4676ZM43.1989 28.8206C44.4495 29.5353 47.1846 30.6403 49.5993 31.4729C50.8165 31.8926 51.9929 32.2573 52.8995 32.4758C53.3461 32.5834 53.7676 32.6656 54.1104 32.6926C54.2756 32.7056 54.4813 32.7112 54.6842 32.6748C54.8279 32.6491 55.3093 32.5452 55.5546 32.0546L53.7657 31.1602C53.8703 30.9511 54.0267 30.8356 54.1309 30.7793C54.2296 30.726 54.3079 30.7104 54.3314 30.7062C54.375 30.6984 54.3659 30.7065 54.2676 30.6988C54.0835 30.6843 53.7833 30.6315 53.368 30.5314C52.551 30.3345 51.443 29.9931 50.2512 29.5822C47.8479 28.7534 45.2666 27.6986 44.1912 27.0842L43.1989 28.8206ZM55.5546 32.0546C55.674 31.8158 55.6857 31.5858 55.6822 31.449C55.6784 31.3006 55.6533 31.162 55.6261 31.048C55.5717 30.82 55.4805 30.5758 55.3805 30.3414C55.1775 29.8662 54.8781 29.295 54.5508 28.7152C53.8922 27.5484 53.0637 26.247 52.5017 25.404L50.8376 26.5134C51.3832 27.3319 52.1829 28.589 52.8091 29.6983C53.1242 30.2565 53.3814 30.7528 53.5412 31.1269C53.6224 31.3172 53.6642 31.4432 53.6808 31.5124C53.689 31.547 53.6839 31.5388 53.6829 31.5002C53.6822 31.4733 53.6795 31.3326 53.7657 31.1602L55.5546 32.0546Z" fill="#161618"/>
<path d="M56.4116 22.9766C56.0492 22.5599 55.4176 22.5158 55.0008 22.8782C54.5841 23.2406 54.54 23.8722 54.9024 24.289L56.4116 22.9766ZM60.6411 33.9334L61.5898 34.2496L60.6411 33.9334ZM45.9698 35.5929C45.4182 35.6212 44.994 36.0912 45.0223 36.6428C45.0506 37.1943 45.5207 37.6185 46.0722 37.5903L45.9698 35.5929ZM54.9024 24.289C55.9655 25.5116 57.3626 27.4456 58.3914 29.3428C58.906 30.2919 59.3109 31.1998 59.5417 31.9834C59.7821 32.8 59.7878 33.331 59.6924 33.6171L61.5898 34.2496C61.8821 33.3727 61.7355 32.3532 61.4602 31.4184C61.1752 30.4506 60.701 29.4064 60.1496 28.3895C59.0463 26.3548 57.5636 24.3014 56.4116 22.9766L54.9024 24.289ZM59.6924 33.6171C59.4886 34.2286 58.9798 34.7088 58.0464 35.0656C57.0997 35.4276 55.8444 35.6082 54.4056 35.6757C52.9779 35.7428 51.449 35.6961 49.9761 35.6441C48.5279 35.5929 47.1039 35.5347 45.9698 35.5929L46.0722 37.5903C47.0979 37.5377 48.4151 37.5902 49.9055 37.6429C51.3712 37.6946 52.9781 37.745 54.4994 37.6735C56.0095 37.6026 57.5163 37.4095 58.7606 36.9338C60.018 36.453 61.1291 35.6318 61.5898 34.2496L59.6924 33.6171Z" fill="#161618"/>
<path d="M44.6917 18.1963L44.8447 19.1846L44.6917 18.1963ZM46.0208 18.5286L46.7891 17.8884L46.7891 17.8884L46.0208 18.5286ZM48.0145 20.5223L47.3362 21.2571C47.3748 21.2927 47.4161 21.3252 47.4598 21.3543L48.0145 20.5223ZM49.6759 22.1868C50.2282 22.1868 50.6759 21.7391 50.6759 21.1868C50.6759 20.6345 50.2282 20.1868 49.6759 20.1868V22.1868ZM43.3626 14.209L44.1435 14.8337L43.3626 14.209ZM43.3626 19.1932C44.1563 19.8015 44.1562 19.8016 44.1561 19.8018C44.1561 19.8018 44.156 19.802 44.1559 19.802C44.1558 19.8022 44.1556 19.8024 44.1555 19.8025C44.1553 19.8028 44.1551 19.8031 44.1549 19.8033C44.1546 19.8037 44.1545 19.8039 44.1545 19.8039C44.1544 19.8039 44.155 19.8032 44.1562 19.8017C44.1586 19.7986 44.1633 19.7927 44.1701 19.7843C44.1838 19.7674 44.2059 19.7408 44.2348 19.7075C44.2936 19.6398 44.3761 19.5504 44.4714 19.4609C44.5688 19.3693 44.6646 19.2921 44.7492 19.2384C44.8409 19.1803 44.8714 19.1804 44.8447 19.1846L44.5388 17.2081C43.8931 17.308 43.3677 17.7536 43.1021 18.003C42.9453 18.1504 42.8157 18.2915 42.7255 18.3952C42.6799 18.4477 42.6432 18.4919 42.6168 18.5245C42.6035 18.5408 42.5928 18.5543 42.5848 18.5645C42.5808 18.5696 42.5775 18.5738 42.5748 18.5773C42.5735 18.579 42.5723 18.5805 42.5713 18.5817C42.5709 18.5824 42.5704 18.5829 42.57 18.5835C42.5698 18.5837 42.5696 18.584 42.5694 18.5842C42.5693 18.5843 42.5692 18.5845 42.5692 18.5845C42.5691 18.5847 42.5689 18.5849 43.3626 19.1932ZM44.8447 19.1846C45.0257 19.1566 45.2058 19.1094 45.2704 19.0944C45.3644 19.0727 45.3459 19.0839 45.295 19.0812C45.2634 19.0796 45.2269 19.0737 45.1901 19.0618C45.1541 19.0502 45.1308 19.0372 45.1216 19.0314C45.1098 19.024 45.152 19.048 45.2526 19.1688L46.7891 17.8884C46.4344 17.4628 45.9995 17.1151 45.3988 17.0839C45.151 17.0711 44.937 17.1187 44.8187 17.1461C44.6712 17.1803 44.6222 17.1952 44.5388 17.2081L44.8447 19.1846ZM45.2526 19.1688C45.5688 19.5482 46.1048 20.0818 46.5299 20.4932C46.7489 20.7052 46.9499 20.8956 47.096 21.0329C47.1692 21.1017 47.2288 21.1573 47.2703 21.196C47.2911 21.2153 47.3074 21.2304 47.3185 21.2407C47.3241 21.2459 47.3284 21.2499 47.3314 21.2526C47.3329 21.254 47.334 21.255 47.3348 21.2558C47.3352 21.2562 47.3356 21.2565 47.3358 21.2567C47.3359 21.2568 47.336 21.2569 47.3361 21.2569C47.3361 21.257 47.3361 21.257 47.3362 21.257C47.3362 21.257 47.3362 21.2571 48.0145 20.5223C48.6928 19.7875 48.6928 19.7875 48.6928 19.7875C48.6928 19.7875 48.6928 19.7875 48.6928 19.7875C48.6928 19.7875 48.6927 19.7874 48.6927 19.7874C48.6926 19.7873 48.6924 19.7871 48.6921 19.7868C48.6915 19.7863 48.6906 19.7854 48.6893 19.7843C48.6868 19.7819 48.683 19.7784 48.6779 19.7737C48.6677 19.7642 48.6524 19.7501 48.6327 19.7318C48.5934 19.6951 48.5362 19.6417 48.4657 19.5755C48.3245 19.4429 48.1309 19.2594 47.9208 19.056C47.4875 18.6368 47.0267 18.1736 46.7891 17.8884L45.2526 19.1688ZM48.0145 20.5223C47.4598 21.3543 47.4599 21.3544 47.4601 21.3545C47.4601 21.3545 47.4602 21.3546 47.4603 21.3547C47.4605 21.3548 47.4608 21.355 47.461 21.3551C47.4614 21.3554 47.462 21.3558 47.4625 21.3561C47.4637 21.3569 47.4651 21.3579 47.4668 21.3589C47.4701 21.3611 47.4744 21.3639 47.4796 21.3673C47.49 21.3741 47.5042 21.3833 47.5217 21.3945C47.5569 21.4168 47.6059 21.4474 47.6661 21.4836C47.7857 21.5554 47.9541 21.6516 48.1488 21.749C48.4889 21.919 49.0888 22.1868 49.6759 22.1868V20.1868C49.6759 20.1868 49.6744 20.1868 49.6714 20.1866C49.6683 20.1865 49.6639 20.1861 49.6581 20.1855C49.6464 20.1842 49.6303 20.1818 49.6098 20.1777C49.5679 20.1693 49.5152 20.1553 49.4522 20.1343C49.3243 20.0917 49.1828 20.0299 49.0432 19.9601C48.9056 19.8913 48.7832 19.8214 48.6951 19.7686C48.6515 19.7425 48.6175 19.7212 48.5955 19.7072C48.5845 19.7002 48.5766 19.6951 48.5721 19.6921C48.5699 19.6907 48.5685 19.6897 48.568 19.6894C48.5677 19.6892 48.5677 19.6892 48.5679 19.6893C48.568 19.6894 48.5682 19.6895 48.5684 19.6897C48.5685 19.6897 48.5686 19.6898 48.5687 19.6899C48.5688 19.69 48.5689 19.69 48.569 19.6901C48.5691 19.6901 48.5692 19.6902 48.0145 20.5223ZM44.2911 18.8218C44.0995 18.3426 43.8623 17.5267 43.7944 16.7021C43.7234 15.8402 43.8548 15.1946 44.1435 14.8337L42.5818 13.5843C41.8072 14.5526 41.7171 15.8453 41.8011 16.8662C41.8883 17.9245 42.1828 18.9361 42.4342 19.5646L44.2911 18.8218ZM44.1435 14.8337C44.7244 14.1076 45.0775 14.013 45.2253 14.0016C45.4085 13.9875 45.6624 14.0643 46.1308 14.3765L47.2402 12.7124C46.7117 12.3601 45.9687 11.9385 45.072 12.0075C44.1398 12.0792 43.33 12.6491 42.5818 13.5843L44.1435 14.8337ZM46.1308 14.3765C46.3171 14.5008 46.5424 14.6883 46.825 14.9401C47.0842 15.171 47.4194 15.4817 47.7334 15.7539C48.3539 16.2916 49.1781 16.9429 50.098 17.1728L50.583 15.2326C50.1738 15.1303 49.6689 14.7847 49.0433 14.2425C48.7344 13.9747 48.4673 13.7247 48.1554 13.4468C47.8669 13.1898 47.5522 12.9205 47.2402 12.7124L46.1308 14.3765ZM50.098 17.1728C50.6483 17.3104 51.2625 17.5877 51.7163 17.9443C52.1867 18.3138 52.331 18.6375 52.331 18.8609H54.331C54.331 17.7552 53.6446 16.9159 52.952 16.3717C52.2429 15.8145 51.3618 15.4272 50.583 15.2326L50.098 17.1728ZM52.331 18.8609C52.331 19.3482 52.1311 20.2116 51.805 21.1491C51.4836 22.0731 51.1011 22.895 50.8375 23.2903L52.5016 24.3997C52.9027 23.7982 53.3508 22.7926 53.694 21.8061C54.0325 20.8329 54.331 19.7027 54.331 18.8609H52.331ZM50.8375 23.2903C50.7531 23.417 50.4936 23.6933 50.0408 24.0888C49.6145 24.4612 49.0862 24.8803 48.5408 25.2843C47.9957 25.6881 47.4452 26.0681 46.977 26.3638C46.4777 26.6792 46.1565 26.8438 46.037 26.8837L46.6694 28.781C47.0483 28.6547 47.5578 28.3625 48.0449 28.0548C48.5631 27.7276 49.1549 27.3184 49.7312 26.8915C50.3073 26.4648 50.8796 26.0117 51.3566 25.595C51.8073 25.2013 52.2538 24.7715 52.5016 24.3997L50.8375 23.2903ZM46.037 26.8837C45.9756 26.9041 45.7802 26.9346 45.4481 26.9041C45.1368 26.8754 44.7808 26.7998 44.4407 26.6808C44.0968 26.5605 43.8078 26.4092 43.6056 26.2508C43.3988 26.0888 43.3469 25.9718 43.336 25.9284L41.3957 26.4135C41.551 27.0347 41.956 27.4991 42.3722 27.8252C42.793 28.1548 43.2931 28.3981 43.78 28.5685C44.2706 28.7402 44.7867 28.8516 45.2646 28.8956C45.7217 28.9377 46.2324 28.9267 46.6694 28.781L46.037 26.8837ZM43.336 25.9284C43.3144 25.8419 43.2968 25.5434 43.3437 24.9799C43.387 24.4606 43.4737 23.8274 43.5851 23.1522C43.8075 21.8039 44.1182 20.3481 44.3361 19.4222L42.3892 18.9641C42.1641 19.9211 41.8434 21.4226 41.6118 22.8266C41.4961 23.5276 41.4001 24.2194 41.3506 24.8139C41.3048 25.3642 41.2844 25.9684 41.3957 26.4135L43.336 25.9284Z" fill="#161618"/>
<path d="M27.6631 9.4821C28.2115 9.54804 28.6025 10.046 28.5366 10.5943C28.4706 11.1427 27.9726 11.5337 27.4243 11.4678L27.6631 9.4821ZM22.4843 7.43592C22.2159 6.95324 22.3896 6.34437 22.8722 6.07597C23.3549 5.80756 23.9638 5.98127 24.2322 6.46394L22.4843 7.43592ZM34.2863 5.46932C34.6474 5.88714 34.6015 6.51864 34.1837 6.87981C33.7658 7.24097 33.1343 7.19505 32.7732 6.77722L34.2863 5.46932ZM31.725 0.624377C31.9415 0.1163 32.5289 -0.120063 33.037 0.096446C33.545 0.312955 33.7814 0.900348 33.5649 1.40842L31.725 0.624377ZM27.4243 11.4678C26.3515 11.3388 25.3436 10.7112 24.5357 9.99334C23.7101 9.25984 22.985 8.33643 22.4843 7.43592L24.2322 6.46394C24.627 7.17395 25.2121 7.91892 25.8641 8.49823C26.5337 9.09322 27.1707 9.42288 27.6631 9.4821L27.4243 11.4678ZM32.7732 6.77722C32.2267 6.14504 31.7848 5.0866 31.5585 4.03543C31.3317 2.98209 31.2687 1.69515 31.725 0.624377L33.5649 1.40842C33.3416 1.93238 33.3258 2.74169 33.5137 3.6145C33.7021 4.48948 34.0423 5.18711 34.2863 5.46932L32.7732 6.77722Z" fill="#161618"/>
</svg>
