<svg width="65" height="72" viewBox="0 0 65 72" fill="none" xmlns="http://www.w3.org/2000/svg">
<path d="M22.5 18.8772L24 23.3772L21.5 25.3772L18 23.3772L15.5 26.8772L19 29.8772L18 32.8772L13.5 33.3772V37.8772L18 38.3772L18.5 41.3772L14.5 44.3772L16.5 48.3772L21 46.3772L23 48.8772L21 52.8772L25 55.3772L27.5 51.8772L30.5 52.8772L31 57.3772H35L36 52.8772L39 52.3772L41.5 55.8772L45.5 53.8772L43.5 49.3772L46 47.3772L50 49.3772L52.5 45.8772L48.5 42.8772L49.5 39.8772L54.5 39.3772V34.8772L50 34.3772L49.5 31.3772L53 28.3772L51 24.8772L46.5 26.3772L45 23.8772L47 19.8772L43 17.3772L40 20.8772L37 19.8772V15.3772H32.5L32 19.8772L29 20.8772L26.5 16.8772L22.5 18.8772Z" stroke="#161618" stroke-width="2" stroke-linejoin="round"/>
<circle cx="34.5" cy="37.3772" r="9.5" fill="#1F64B1"/>
<circle cx="34" cy="36.8772" r="11" stroke="#161618" stroke-width="2"/>
<path d="M30 35.9681L33.2 40.8772L38 31.8772" stroke="white" stroke-width="2" stroke-linecap="round"/>
<path d="M48.5939 59.4634C48.0892 59.6877 47.8619 60.2787 48.0862 60.7833C48.3105 61.288 48.9015 61.5153 49.4061 61.291L48.5939 59.4634ZM54.7296 18.8772L54.7298 17.8772C54.3573 17.8771 54.0156 18.0841 53.8432 18.4143L54.7296 18.8772ZM55.869 26.2333C56.0969 26.7364 56.6894 26.9595 57.1925 26.7316C57.6956 26.5038 57.9187 25.9112 57.6909 25.4081L55.869 26.2333ZM59.8656 22.1304C60.1598 22.5978 60.7771 22.7382 61.2446 22.444C61.712 22.1499 61.8524 21.5325 61.5582 21.0651L59.8656 22.1304ZM53.8432 18.4143C53.6386 18.8059 53.6327 19.2501 53.6512 19.5577C53.6719 19.9035 53.7402 20.2843 53.829 20.6636C54.0075 21.4256 54.2981 22.3026 54.5962 23.1145C54.8965 23.9322 55.2142 24.7106 55.456 25.2828C55.5772 25.5695 55.6798 25.8057 55.7524 25.9709C55.7887 26.0535 55.8175 26.1183 55.8374 26.1629C55.8474 26.1852 55.8551 26.2024 55.8605 26.2143C55.8631 26.2202 55.8652 26.2247 55.8666 26.2279C55.8673 26.2295 55.8679 26.2308 55.8683 26.2317C55.8685 26.2321 55.8687 26.2325 55.8688 26.2327C55.8689 26.2329 55.8689 26.233 55.8689 26.2331C55.869 26.2332 55.869 26.2333 56.78 25.8207C57.6909 25.4081 57.6909 25.4082 57.6909 25.4082C57.6909 25.4082 57.6909 25.4082 57.6909 25.4082C57.6909 25.4081 57.6908 25.4079 57.6907 25.4076C57.6904 25.4071 57.69 25.4063 57.6895 25.405C57.6884 25.4026 57.6867 25.3988 57.6844 25.3937C57.6798 25.3834 57.6728 25.3678 57.6635 25.3472C57.6451 25.306 57.6179 25.2447 57.5832 25.1659C57.514 25.0083 57.4152 24.781 57.2983 24.5044C57.0641 23.95 56.7593 23.203 56.4737 22.4251C56.1859 21.6414 55.9274 20.8527 55.7763 20.2076C55.7004 19.8833 55.6588 19.6251 55.6476 19.4378C55.634 19.2123 55.674 19.229 55.6159 19.3401L53.8432 18.4143ZM54.7293 19.8772C54.9415 19.8773 55.3381 19.9418 55.88 20.0959C56.4017 20.2442 56.9934 20.4565 57.5697 20.7061C58.1479 20.9564 58.6893 21.2348 59.1182 21.5094C59.577 21.8032 59.7995 22.0255 59.8656 22.1304L61.5582 21.0651C61.2472 20.571 60.7098 20.1537 60.1967 19.8251C59.6536 19.4774 59.0111 19.1507 58.3643 18.8707C57.7156 18.5899 57.0412 18.3467 56.4268 18.1721C55.8326 18.0032 55.2229 17.8773 54.7298 17.8772L54.7293 19.8772ZM49.4061 61.291C58.7465 57.1397 63.5655 49.3902 64.3672 41.1414C65.166 32.9235 61.9778 24.2433 55.41 18.1444L54.0491 19.61C60.167 25.2911 63.1141 33.3609 62.3766 40.948C61.6422 48.5042 57.2535 55.6147 48.5939 59.4634L49.4061 61.291Z" fill="#161618"/>
<path d="M9.48175 35.5681C9.58716 35.026 9.23313 34.501 8.691 34.3956C8.14887 34.2902 7.62393 34.6442 7.51852 35.1864L9.48175 35.5681ZM35.3611 64.8512L36.1005 65.5244C36.3535 65.2466 36.4294 64.8504 36.297 64.4987L35.3611 64.8512ZM29.2194 60.7264C28.6954 60.552 28.1292 60.8354 27.9548 61.3595C27.7805 61.8835 28.0639 62.4497 28.588 62.6241L29.2194 60.7264ZM29.6213 66.355C29.0785 66.2527 28.5556 66.6097 28.4532 67.1524C28.3509 67.6951 28.7079 68.218 29.2506 68.3204L29.6213 66.355ZM36.297 64.4987C36.1436 64.0914 35.8228 63.7917 35.5852 63.5998C35.318 63.3838 34.9937 63.1783 34.6565 62.9883C33.9791 62.6066 33.1432 62.2285 32.35 61.8992C31.5512 61.5677 30.7698 61.275 30.1899 61.0657C29.8995 60.9609 29.6582 60.8765 29.4891 60.8182C29.4045 60.789 29.3378 60.7663 29.2919 60.7508C29.269 60.743 29.2513 60.737 29.2391 60.7329C29.233 60.7309 29.2282 60.7293 29.225 60.7282C29.2233 60.7277 29.222 60.7272 29.2211 60.7269C29.2206 60.7268 29.2203 60.7267 29.22 60.7266C29.2199 60.7265 29.2197 60.7265 29.2196 60.7264C29.2195 60.7264 29.2194 60.7264 28.9037 61.6752C28.588 62.6241 28.5879 62.624 28.5879 62.624C28.5879 62.624 28.5879 62.624 28.5879 62.6241C28.588 62.6241 28.5882 62.6241 28.5885 62.6242C28.589 62.6244 28.5899 62.6247 28.5912 62.6251C28.5937 62.626 28.5976 62.6273 28.6029 62.6291C28.6135 62.6326 28.6295 62.638 28.6508 62.6452C28.6932 62.6596 28.7562 62.681 28.837 62.7089C28.9985 62.7646 29.2307 62.8458 29.511 62.9469C30.0729 63.1497 30.8229 63.4308 31.5832 63.7464C32.3491 64.0643 33.0999 64.4069 33.6747 64.7307C33.9636 64.8935 34.1818 65.0371 34.3282 65.1553C34.5042 65.2976 34.4681 65.3174 34.4253 65.2036L36.297 64.4987ZM34.6217 64.1779C34.4871 64.3258 34.184 64.5655 33.7162 64.8521C33.2667 65.1275 32.7241 65.4106 32.1638 65.658C31.6018 65.9062 31.0435 66.109 30.5621 66.2334C30.0472 66.3665 29.7404 66.3775 29.6213 66.355L29.2506 68.3204C29.8197 68.4277 30.482 68.3198 31.0626 68.1698C31.6767 68.0111 32.3402 67.7665 32.9718 67.4876C33.6051 67.2079 34.2279 66.8842 34.761 66.5575C35.2758 66.2421 35.7726 65.8845 36.1005 65.5244L34.6217 64.1779ZM7.51852 35.1864C5.7109 44.4829 8.2556 52.497 13.5227 58.021C18.7786 63.5331 26.6717 66.4904 35.4342 65.8485L35.2881 63.8538C27.0594 64.4566 19.772 61.6768 14.9702 56.6408C10.1797 51.6167 7.78948 44.2715 9.48175 35.5681L7.51852 35.1864Z" fill="#161618"/>
<path d="M47.5528 12.7716C48.0467 13.0186 48.6474 12.8184 48.8944 12.3244C49.1414 11.8304 48.9412 11.2297 48.4472 10.9827L47.5528 12.7716ZM9.27257 23.1275L8.35178 23.5176C8.49834 23.8635 8.82649 24.0982 9.20128 24.125L9.27257 23.1275ZM15.5879 19.2739C15.9655 18.8708 15.9448 18.238 15.5418 17.8604C15.1387 17.4829 14.5059 17.5036 14.1283 17.9066L15.5879 19.2739ZM10.3071 17.2848C10.6271 16.8346 10.5215 16.2103 10.0714 15.8904C9.62123 15.5704 8.99692 15.6759 8.67696 16.1261L10.3071 17.2848ZM9.20128 24.125C9.63548 24.156 10.0418 23.99 10.3155 23.8544C10.6235 23.702 10.9457 23.4934 11.2594 23.2666C11.8894 22.8109 12.5824 22.2097 13.2133 21.627C13.8486 21.0401 14.4412 20.4527 14.8738 20.0135C15.0905 19.7935 15.268 19.6097 15.3918 19.4804C15.4537 19.4158 15.5022 19.3647 15.5355 19.3296C15.5521 19.312 15.5649 19.2983 15.5738 19.289C15.5782 19.2843 15.5816 19.2807 15.584 19.2781C15.5851 19.2769 15.5861 19.2759 15.5867 19.2752C15.5871 19.2748 15.5873 19.2745 15.5875 19.2743C15.5876 19.2742 15.5877 19.2741 15.5878 19.2741C15.5879 19.274 15.5879 19.2739 14.8581 18.5903C14.1283 17.9066 14.1283 17.9066 14.1284 17.9066C14.1283 17.9066 14.1283 17.9066 14.1283 17.9066C14.1282 17.9067 14.1281 17.9068 14.1279 17.907C14.1275 17.9074 14.1269 17.9081 14.126 17.9091C14.1242 17.911 14.1213 17.914 14.1175 17.9181C14.1099 17.9262 14.0982 17.9386 14.0828 17.9548C14.052 17.9874 14.0062 18.0357 13.9471 18.0973C13.829 18.2208 13.6581 18.3977 13.4489 18.61C13.0298 19.0356 12.4608 19.5993 11.8561 20.1579C11.247 20.7206 10.6218 21.2594 10.0873 21.646C9.81861 21.8403 9.59691 21.9786 9.4283 22.062C9.22548 22.1624 9.22256 22.1214 9.34387 22.1301L9.20128 24.125ZM10.1934 22.7375C10.1153 22.5533 10.0244 22.1777 9.95965 21.6329C9.89749 21.1095 9.86729 20.4982 9.87687 19.8858C9.88649 19.2715 9.9358 18.6796 10.0241 18.1903C10.1186 17.6669 10.2369 17.3836 10.3071 17.2848L8.67696 16.1261C8.34143 16.5982 8.16243 17.2449 8.05592 17.835C7.94326 18.4592 7.88792 19.1642 7.87712 19.8545C7.86628 20.5468 7.89987 21.2479 7.97361 21.8688C8.04481 22.4683 8.16181 23.0691 8.35178 23.5176L10.1934 22.7375ZM48.4472 10.9827C39.307 6.41265 30.8526 5.148 23.848 7.18424C16.8078 9.23082 11.414 14.5591 8.33611 22.7768L10.209 23.4783C13.1068 15.7416 18.0767 10.9447 24.4063 9.10474C30.7715 7.25438 38.693 8.34172 47.5528 12.7716L48.4472 10.9827Z" fill="#161618"/>
</svg>
